<svg width="26" height="26" viewBox="0 0 26 26" fill="none" xmlns="http://www.w3.org/2000/svg">
<g id="Basket">
<path id="Vector" d="M5.94531 11.7715H8.44531" stroke="#313131" stroke-width="1.38" stroke-miterlimit="10" stroke-linecap="round"/>
<path id="Vector_2" d="M17.2422 11.7715H19.7322" stroke="#313131" stroke-width="1.38" stroke-miterlimit="10" stroke-linecap="round"/>
<path id="Vector_3" d="M24.6141 20.912L23.1941 10.252C23.0041 9.20195 22.5441 8.25195 21.1941 8.25195H15.7541H9.89408H4.45409C3.10409 8.25195 2.64409 9.20195 2.45409 10.252L1.0341 20.912C0.704095 23.992 2.8241 24.912 5.0341 24.912H9.88409H15.7441H20.5941C22.8241 24.912 24.9441 23.992 24.6141 20.912Z" stroke="#313131" stroke-width="1.38" stroke-miterlimit="10" stroke-linecap="round"/>
<path id="Vector_4" d="M18.4837 12.252C18.4937 12.382 18.5137 12.5119 18.5137 12.6519C18.5137 15.8119 15.9537 18.3619 12.8037 18.3619C9.64374 18.3619 7.09375 15.8019 7.09375 12.6519C7.09375 12.5219 7.11375 12.392 7.12375 12.252" stroke="#313131" stroke-width="1.38" stroke-miterlimit="10" stroke-linecap="round"/>
<path id="Vector_5" d="M21.0444 8.26137L21.1644 6.37138C21.2144 5.96138 20.9144 5.59137 20.5044 5.54137L11.8044 4.59139C11.3944 4.54139 11.0244 4.84139 10.9744 5.25139L10.7344 8.16139L21.0444 8.26137Z" stroke="#313131" stroke-width="1.38" stroke-miterlimit="10" stroke-linecap="round"/>
<path id="Vector_6" d="M11.8053 4.59182L15.6953 5.02181L15.1353 1.9218C15.0653 1.5118 14.6753 1.24182 14.2653 1.31182L4.44526 3.05181C4.03526 3.12181 3.76526 3.5118 3.83526 3.9218L4.60526 8.16183H10.7253L10.9653 5.25182C11.0253 4.85182 11.3953 4.55182 11.8053 4.59182Z" stroke="#313131" stroke-width="1.38" stroke-miterlimit="10" stroke-linecap="round"/>
</g>
</svg>
