<svg width="18" height="18" viewBox="0 0 18 18" fill="none" xmlns="http://www.w3.org/2000/svg">
<path id="Vector" d="M8.41992 0.104039C8.79258 -0.0346798 9.20742 -0.0346798 9.58008 0.104039L16.8926 2.80828C17.557 3.05437 18 3.69194 18 4.40823V13.603C18 14.3157 17.557 14.954 16.8926 15.1987L9.58008 17.8723C9.20742 18.0426 8.79258 18.0426 8.41992 17.8723L1.10672 15.1987C0.441914 14.954 0 14.3157 0 13.603V4.40823C0 3.69194 0.441914 3.05437 1.10672 2.80828L8.41992 0.104039ZM9.19336 1.16932C9.03867 1.12323 8.92969 1.12323 8.80664 1.16932L1.5518 3.85151L9 6.7734L16.4496 3.85151L9.19336 1.16932ZM1.49379 14.1349L8.4375 16.7022V7.79819L1.125 4.90112V13.603C1.125 13.8406 1.2723 14.0533 1.49379 14.1349ZM9.5625 16.7022L16.5059 14.1349C16.7273 14.0533 16.875 13.8406 16.875 13.603V4.90112L9.5625 7.79819V16.7022Z" fill="#313131"/>
</svg>
