<svg width="63" height="63" viewBox="0 0 63 63" fill="none" xmlns="http://www.w3.org/2000/svg">
<g id="Group 1291">
<path id="Vector" d="M12.037 62.1285C15.0173 62.1285 17.4332 59.7125 17.4332 56.7322C17.4332 53.7519 15.0173 51.3359 12.037 51.3359C9.05666 51.3359 6.64062 53.7519 6.64062 56.7322C6.64062 59.7125 9.05666 62.1285 12.037 62.1285Z" stroke="#313131" stroke-width="1.1" stroke-miterlimit="10"/>
<path id="Vector_2" d="M52.4978 62.1285C55.4781 62.1285 57.8942 59.7125 57.8942 56.7322C57.8942 53.7519 55.4781 51.3359 52.4978 51.3359C49.5175 51.3359 47.1016 53.7519 47.1016 56.7322C47.1016 59.7125 49.5175 62.1285 52.4978 62.1285Z" stroke="#313131" stroke-width="1.1" stroke-miterlimit="10"/>
<path id="Vector_3" d="M6.72977 56.7418H5.03206C2.80887 56.7418 1 54.9329 1 52.6996V18.5129C1 16.2796 2.80887 14.4707 5.03206 14.4707H8.20519" stroke="#313131" stroke-width="1.1" stroke-miterlimit="10"/>
<path id="Vector_4" d="M17.6445 56.7418H43.0799V18.5129C43.0799 16.2796 41.2711 14.4707 39.0479 14.4707H35.6928" stroke="#313131" stroke-width="1.1" stroke-miterlimit="10"/>
<path id="Vector_5" d="M58.0455 56.7425C60.2788 56.7425 62.1584 54.9336 62.1584 52.7003C62.1584 52.7003 62.1281 44.1309 62.1483 41.2306C62.1483 40.1595 62.2696 38.3203 61.6936 36.9763L54.9431 24.7487C54.4783 24.0817 53.6294 23.3945 52.4369 23.3945L43.1602 23.4147V56.7324H47.1215" stroke="#313131" stroke-width="1.1" stroke-miterlimit="10" stroke-linecap="round" stroke-linejoin="round"/>
<path id="Vector_6" d="M57.247 29.0127H50.8906C49.6073 29.0127 48.5664 30.0536 48.5664 31.337V34.9749C48.5664 36.2583 49.6073 37.2992 50.8906 37.2992H61.1578C62.047 37.2992 60.7334 36.7939 61.1275 36.0663L57.247 29.0127Z" stroke="#313131" stroke-width="1.1" stroke-miterlimit="10" stroke-linecap="round" stroke-linejoin="round"/>
<path id="Vector_7" d="M21.9874 21.7464C25.8551 21.7464 28.9905 18.611 28.9905 14.7433C28.9905 10.8756 25.8551 7.74023 21.9874 7.74023C18.1198 7.74023 14.9844 10.8756 14.9844 14.7433C14.9844 18.611 18.1198 21.7464 21.9874 21.7464Z" stroke="#DE192B" stroke-width="1.1" stroke-miterlimit="10"/>
<path id="Vector_8" d="M22.0193 1C22.0092 1 21.9991 1 21.989 1C21.9789 1 21.9688 1 21.9587 1C14.3695 1 8.28599 7.15422 8.21525 14.7434C8.19504 16.4007 8.92263 19.109 10.0443 21.5646C12.2271 25.8695 16.4613 32.9534 21.1907 38.0971C21.2311 38.1476 21.3018 38.1678 21.3625 38.2083C21.5241 38.3497 21.7363 38.4306 21.9789 38.4205C21.989 38.4205 21.989 38.4205 21.9991 38.4205C22.0092 38.4205 22.0092 38.4205 22.0193 38.4205C22.2619 38.4306 22.4741 38.3497 22.6357 38.2083C22.6964 38.1678 22.757 38.1476 22.8075 38.0971C27.5268 32.9534 31.7711 25.8695 33.9539 21.5646C35.0756 19.109 35.793 16.4007 35.7829 14.7434C35.692 7.15422 29.6085 1 22.0193 1Z" stroke="#DE192B" stroke-width="1.1" stroke-miterlimit="10" stroke-linejoin="round"/>
</g>
</svg>
