<svg width="69" height="63" viewBox="0 0 69 63" fill="none" xmlns="http://www.w3.org/2000/svg">
<g id="Group 1294">
<g id="Group 1289">
<path id="Vector" d="M34.4145 62.4252C34.0432 62.3953 33.6706 62.3655 33.2993 62.3356C26.9223 61.8202 21.2646 59.5184 16.3261 55.4614C12.9546 52.6923 10.3074 49.3363 8.338 45.4442C8.28478 45.3378 8.23285 45.2313 8.15625 45.0729C8.61193 44.9652 9.02607 44.8587 9.4467 44.7795C9.50253 44.7691 9.60379 44.8873 9.65053 44.9652C10.3152 46.0726 10.9098 47.228 11.6446 48.2861C15.6263 54.0113 20.9439 57.9229 27.6507 59.8936C31.1637 60.9257 34.7559 61.2607 38.3949 60.8712C47.0737 59.9417 53.9764 55.8795 59.1499 48.891C62.1852 44.7912 63.9573 40.1552 64.609 35.0972C64.7349 34.1222 64.7739 33.1369 64.8336 32.1554C64.8466 31.9347 64.9128 31.8659 65.1283 31.8581C65.484 31.8438 65.8397 31.7958 66.2344 31.7568C66.2344 31.8542 66.237 31.9386 66.2344 32.023C65.8774 41.295 62.2735 49.0429 55.2643 55.1421C51.1177 58.7499 46.2895 61.0049 40.8732 61.9565C39.6191 62.1772 38.3391 62.2474 37.0707 62.3876C36.9824 62.3967 36.8954 62.4135 36.8072 62.4265C36.0087 62.4252 35.2116 62.4252 34.4145 62.4252Z" fill="#313131"/>
<path id="Vector_2" d="M5 29.7812C5.04674 29.1697 5.07789 28.6024 5.13502 28.0377C5.53877 24.0547 6.61501 20.2599 8.49487 16.7235C12.6596 8.88729 18.9405 3.52295 27.5245 1.17444C37.0913 -1.44282 45.9414 0.34356 53.923 6.24147C57.14 8.61855 59.7222 11.5941 61.7838 15.0228C61.8461 15.1266 61.9058 15.2331 61.9915 15.3798C61.5826 15.5382 61.1892 15.6992 60.7868 15.8355C60.7335 15.8537 60.6128 15.7524 60.5622 15.681C59.7949 14.5918 59.0965 13.4467 58.2591 12.4146C53.8464 6.962 48.2146 3.46064 41.3326 2.02738C37.8066 1.29258 34.2559 1.24844 30.7091 1.87289C20.5529 3.66057 12.0624 10.6931 8.38322 20.3326C7.30308 23.1641 6.64617 26.0851 6.43326 29.1087C6.42807 29.1827 6.37873 29.2957 6.32161 29.3177C5.90487 29.4761 5.48035 29.6163 5 29.7812Z" fill="#313131"/>
<path id="Vector_3" d="M39.474 54.9492C39.4493 54.4338 39.4247 53.9729 39.4052 53.5107C39.3675 52.6656 39.3286 51.8204 39.3 50.9752C39.2948 50.8311 39.2507 50.7403 39.1352 50.6533C38.1485 49.9094 37.167 49.159 36.1843 48.4099C36.1206 48.3606 36.0583 48.31 35.9688 48.2399C36.0765 48.1957 36.1609 48.1594 36.2479 48.1269C37.389 47.7011 38.5289 47.2727 39.6726 46.8546C39.8271 46.7988 39.9037 46.7118 39.9557 46.5599C40.3503 45.4084 40.7541 44.2594 41.1565 43.1092C41.1851 43.0261 41.2201 42.9443 41.263 42.8301C41.3357 42.9184 41.3915 42.9846 41.4447 43.0521C42.2094 44.0128 42.9689 44.9774 43.7426 45.9316C43.8166 46.0225 43.9659 46.0965 44.0841 46.1004C45.2875 46.1367 46.491 46.1575 47.6945 46.1821C47.797 46.1847 47.8996 46.1821 48.0515 46.1821C47.9775 46.3016 47.9359 46.3756 47.8892 46.447C47.2206 47.457 46.5559 48.4683 45.8808 49.4745C45.7822 49.6212 45.7562 49.7445 45.8107 49.9198C46.1755 51.0986 46.5261 52.2813 46.8805 53.464C46.8987 53.525 46.9142 53.5886 46.9402 53.6834C46.835 53.66 46.752 53.6444 46.6715 53.6211C45.4901 53.2926 44.3087 52.9642 43.1299 52.6292C42.9754 52.5851 42.8611 52.6084 42.7287 52.7019C41.7368 53.3978 40.7398 54.0845 39.744 54.7739C39.6661 54.8245 39.5921 54.8713 39.474 54.9492Z" fill="#313131"/>
<path id="Vector_4" d="M11.6195 44.0772C11.809 43.9993 12.0077 43.9175 12.2154 43.8305C12.4582 44.2641 12.6802 44.6873 12.9255 45.0976C16.7995 51.5797 22.3417 55.9054 29.7196 57.5932C37.9738 59.4808 45.5023 57.697 52.1026 52.3781C57.0009 48.4302 60.0335 43.28 61.3837 37.1419C61.7187 35.6217 61.8939 34.0794 61.9536 32.5241C61.9718 32.0463 61.8693 32.132 62.3989 32.0113C62.4742 31.9944 62.5534 31.9905 62.6599 31.9775C62.6599 32.0788 62.6625 32.1489 62.6599 32.2203C62.4119 39.1114 60.0348 45.1573 55.378 50.2542C51.3561 54.6552 46.3981 57.4828 40.521 58.537C32.7159 59.9365 25.6158 58.1994 19.2934 53.4063C16.1218 51.002 13.6486 47.9914 11.7831 44.4783C11.726 44.3706 11.6727 44.2615 11.6195 44.1525C11.6143 44.1382 11.6195 44.12 11.6195 44.0772Z" fill="#313131"/>
<path id="Vector_5" d="M58.3234 16.5139C58.1014 16.5931 57.8963 16.6658 57.673 16.7437C57.5159 16.5139 57.3653 16.2841 57.2069 16.0595C53.3472 10.5822 48.2205 6.87314 41.6773 5.36199C33.3595 3.44059 25.7804 5.19321 19.1308 10.5563C14.1923 14.5393 11.1544 19.7426 9.83276 25.943C9.67307 26.6895 9.5822 27.4503 9.46925 28.2059C9.44978 28.3357 9.41472 28.4136 9.27841 28.4434C9.10444 28.4798 8.93437 28.5343 8.75781 28.581C9.46795 19.4064 15.9864 8.68289 27.8783 5.07897C40.1584 1.35821 52.3048 6.88353 58.3234 16.5139Z" fill="#313131"/>
</g>
<path id="Vector_6" d="M33.7156 48.3002C33.2405 49.0207 32.825 49.7217 32.3356 50.367C31.9903 50.82 31.9279 51.2264 32.1279 51.7613C32.4135 52.5246 32.6108 53.3218 32.8575 54.141C32.7238 54.1085 32.6238 54.089 32.5251 54.0618C31.6644 53.8229 30.8037 53.5866 29.9455 53.3386C29.7819 53.2906 29.6599 53.3075 29.5197 53.4074C28.7836 53.9293 28.041 54.4395 27.2997 54.9549C27.227 55.0056 27.153 55.0523 27.0414 55.1263C27.0297 54.9809 27.0154 54.8654 27.0102 54.7485C26.9713 53.88 26.9271 53.0102 26.9037 52.1417C26.8986 51.9404 26.8284 51.8197 26.6714 51.7016C25.8846 51.1134 25.1057 50.5137 24.2969 49.897C24.4007 49.8542 24.4786 49.8178 24.5591 49.7879C25.4108 49.4699 26.2611 49.1479 27.1154 48.8376C27.2828 48.7766 27.3763 48.687 27.4347 48.5157C27.7242 47.6536 28.0267 46.7968 28.3266 45.9387C28.3552 45.8569 28.3902 45.7777 28.4344 45.6699C28.9199 46.2814 29.3899 46.8721 29.8598 47.4628C30.0572 47.7108 30.213 48.0457 30.47 48.1755C30.7271 48.3041 31.088 48.2288 31.4035 48.2378C32.0695 48.2547 32.7367 48.2677 33.4027 48.2833C33.4871 48.2846 33.5741 48.2924 33.7156 48.3002Z" fill="#313131"/>
<path id="Vector_7" d="M49.7419 48.8095C49.7095 48.1228 49.6783 47.484 49.6485 46.844C49.6316 46.4701 49.6264 46.0962 49.5926 45.7236C49.5835 45.6198 49.5173 45.4938 49.4356 45.4302C48.6917 44.8499 47.94 44.2813 47.1896 43.71C47.139 43.6711 47.0896 43.6296 47.0156 43.5698C47.0948 43.5348 47.1545 43.5049 47.2156 43.4816C48.0815 43.157 48.9474 42.8285 49.8172 42.5118C49.9834 42.4507 50.0795 42.3677 50.1379 42.1911C50.4326 41.3135 50.7442 40.4424 51.0493 39.5687C51.0726 39.5024 51.0986 39.4375 51.1362 39.3389C51.3608 39.6206 51.5686 39.8802 51.7737 40.1386C52.1774 40.6475 52.5877 41.1538 52.9823 41.6705C53.1018 41.8263 53.2264 41.8977 53.4263 41.9003C54.3286 41.912 55.2309 41.9405 56.1332 41.9626C56.2137 41.9652 56.2942 41.9691 56.4149 41.9743C56.3539 42.0704 56.311 42.1444 56.2643 42.2145C55.7632 42.9739 55.2647 43.736 54.7557 44.4903C54.661 44.6318 54.6389 44.7499 54.6895 44.9148C54.9622 45.7898 55.2231 46.67 55.4867 47.5489C55.5087 47.6242 55.5256 47.7021 55.5542 47.8177C55.2296 47.7294 54.9362 47.6515 54.6428 47.5697C53.9703 47.3828 53.2978 47.1971 52.6266 47.0024C52.4812 46.9608 52.3735 46.9751 52.2462 47.0647C51.4309 47.6411 50.6079 48.2085 49.7419 48.8095Z" fill="#313131"/>
<path id="Vector_8" d="M66.1866 25.2957C65.6388 25.519 65.135 25.5294 64.6599 25.1347C64.434 25.6618 64.003 25.8747 63.5019 25.9981C62.7839 26.1746 62.066 26.3473 61.3533 26.5446C60.8989 26.6706 60.486 26.6719 60.1277 26.2837C59.8862 26.8276 59.4695 27.0821 58.8931 27.1353C58.7308 26.4927 58.5711 25.8592 58.4062 25.2087C58.627 25.1503 58.823 25.1036 59.0164 25.0465C59.2929 24.9647 59.4111 24.7699 59.354 24.4882C59.315 24.2987 59.2605 24.1117 59.2073 23.8949C59.4643 23.8274 59.711 23.7625 59.9888 23.6885C60.0407 23.8793 60.0836 24.0572 60.1407 24.2312C60.1758 24.3376 60.2134 24.4506 60.2822 24.535C60.4224 24.7063 60.5289 24.6752 60.6379 24.4791C60.9534 23.9131 61.2559 23.3367 61.6077 22.794C61.8518 22.4162 62.1984 22.1228 62.6346 21.9631C63.4058 21.6814 64.099 21.9956 64.3834 22.7667C64.4561 22.9641 64.4976 23.1718 64.5625 23.4055C64.2925 23.4756 64.0367 23.5418 63.7823 23.608C63.6278 23.0316 63.3266 22.8641 62.7619 23.0368C62.1686 23.2185 61.3636 23.9481 61.1585 24.5064C62.6723 24.1234 64.173 23.7456 65.6959 23.36C65.862 24.0131 66.023 24.6492 66.1866 25.2957Z" fill="#DE192B"/>
<path id="Vector_9" d="M30.1941 33.848C29.963 34.401 29.5398 34.6412 28.9673 34.7074C28.8063 34.0713 28.6453 33.4377 28.4766 32.7743C28.6752 32.725 28.8531 32.6821 29.0296 32.6341C29.3749 32.5406 29.4931 32.3407 29.41 31.998C29.3685 31.8253 29.3269 31.6539 29.2802 31.4592C29.5437 31.3917 29.7917 31.3281 30.063 31.258C30.1175 31.4631 30.1604 31.6513 30.2188 31.8344C30.25 31.9318 30.2941 32.0343 30.3616 32.1109C30.5031 32.2706 30.6109 32.2485 30.703 32.0577C31.0406 31.354 31.3522 30.6283 31.9273 30.0805C32.1791 29.8416 32.4907 29.6313 32.814 29.5092C33.4644 29.2626 34.0992 29.5534 34.3901 30.1908C34.5004 30.431 34.5575 30.6945 34.6458 30.9711C34.3576 31.0451 34.1018 31.1113 33.8461 31.1775C33.7267 30.6088 33.4397 30.431 32.8776 30.5985C32.1142 30.8257 31.6391 31.3943 31.173 32.0888C32.3817 31.7851 33.5215 31.4981 34.6718 31.2086C34.8392 31.6552 34.9042 32.0862 34.7834 32.5354C34.6523 33.0262 34.3342 33.3494 33.8552 33.4793C32.9308 33.7298 32.0013 33.9609 31.0705 34.1829C30.7316 34.2634 30.4525 34.105 30.1941 33.848Z" fill="#DE192B"/>
<path id="Vector_10" d="M9.35464 39.7176C9.18327 39.0399 9.02228 38.4051 8.85741 37.7508C9.40656 37.6106 9.93235 37.4755 10.4568 37.3418C10.5036 37.3301 10.5516 37.3198 10.5984 37.3055C10.7801 37.2509 10.9411 37.1536 10.9593 36.9536C10.9774 36.7472 10.8255 36.6252 10.6516 36.5616C9.88302 36.2838 9.11186 36.0163 8.35239 35.7476C8.35239 35.2049 8.3485 34.6051 8.35759 34.0053C8.35888 33.9378 8.4186 33.856 8.47313 33.808C9.31309 33.0771 10.1531 32.3462 11.0047 31.627C11.0956 31.5504 11.2656 31.4945 11.3682 31.527C11.4461 31.5517 11.5136 31.7282 11.5227 31.8412C11.5668 32.4319 11.5876 33.0252 11.6227 33.6172C11.6356 33.8262 11.624 34.0196 11.3903 34.0949C11.1592 34.1702 11.0229 34.0339 10.9164 33.8275C10.5568 34.117 10.2063 34.4 9.83109 34.7012C9.92716 34.7557 10.0064 34.7895 10.0726 34.8388C10.4685 35.1322 10.8918 35.3984 11.2462 35.7372C11.45 35.9319 11.5798 36.2331 11.6746 36.5097C11.8239 36.9459 11.9174 37.4015 12.0329 37.8494C12.1861 38.4414 11.9589 38.949 11.3825 39.1425C10.723 39.3658 10.044 39.5255 9.35464 39.7176Z" fill="#DE192B"/>
<path id="Vector_11" d="M2.42107 38.3752C2.12767 38.222 1.85633 38.0805 1.56553 37.9299C1.54476 38 1.53437 38.0546 1.5123 38.1052C1.39935 38.3726 1.07479 38.4492 0.874864 38.2389C0.589251 37.939 0.319216 37.6249 0.0517783 37.3081C0.00763809 37.2562 -0.00404601 37.1588 0.00114696 37.0848C0.0452872 36.4525 0.0972168 35.8216 0.150445 35.1543C0.289357 35.2231 0.408795 35.2789 0.526935 35.3399C2.0277 36.1189 3.27531 37.1783 4.18538 38.618C4.48527 39.0919 4.59822 39.6228 4.66963 40.1616C4.72415 40.568 4.50475 40.8718 4.11657 41.0016C3.95689 41.0548 3.78942 41.0873 3.59728 41.1366C3.4324 40.4875 3.27142 39.8552 3.10524 39.1983C3.23896 39.1568 3.3597 39.1191 3.51679 39.0711C3.32594 38.9452 3.15458 38.8309 2.97282 38.7102C2.78717 38.914 2.60932 39.11 2.39121 39.3489C2.57296 39.3139 2.70668 39.2879 2.85858 39.258C3.02086 39.8994 3.18054 40.5342 3.35061 41.2041C2.81444 41.3339 2.30033 41.4819 1.77844 41.578C1.46946 41.6351 1.19813 41.417 1.08778 41.0756C0.998197 40.7978 0.938478 40.5108 0.867074 40.2278C0.802162 39.9643 0.961846 39.8137 1.15269 39.6891C1.55644 39.4242 1.93553 39.136 2.19907 38.7206C2.26918 38.6089 2.33928 38.5025 2.42107 38.3752Z" fill="#DE192B"/>
<path id="Vector_12" d="M42.4219 31.352C42.7802 31.2196 43.1151 31.117 43.4293 30.9716C43.6228 30.8821 43.8084 30.7457 43.9577 30.5925C44.2641 30.2771 44.2485 29.8863 43.9071 29.6163C43.6098 29.3813 43.2735 29.1943 42.9529 28.9892C42.8581 28.9295 42.7568 28.8815 42.6465 28.8217C42.8879 28.2895 43.1229 27.7741 43.3579 27.2587C43.3774 27.2158 43.402 27.1756 43.441 27.1055C43.5552 27.2054 43.6604 27.2885 43.7578 27.382C44.0096 27.6235 44.2524 27.8766 44.5095 28.1129C44.8587 28.4336 45.2481 28.6153 45.7298 28.4076C45.7882 28.3829 45.8544 28.3777 45.9492 28.3557C46.1128 28.9996 46.2738 29.6383 46.4386 30.2888C45.9635 30.4679 45.5117 30.503 45.0287 30.2589C45.1897 31.0586 45.1599 31.7882 44.6146 32.4062C44.168 32.9125 43.5773 33.1644 42.9269 33.3461C42.7555 32.6671 42.5893 32.0089 42.4219 31.352Z" fill="#DE192B"/>
<path id="Vector_13" d="M18.0741 37.4663C17.9131 36.8314 17.7534 36.1966 17.5859 35.5358C18.1805 35.3852 18.7608 35.2385 19.3399 35.0892C19.5281 35.0411 19.7215 35.0009 19.8994 34.9269C20.5044 34.6737 20.8251 34.2142 20.8497 33.5547C20.851 33.5144 20.8536 33.4742 20.8549 33.4326C20.8549 33.4248 20.8601 33.417 20.8718 33.3859C21.0665 33.334 21.2742 33.2781 21.5066 33.2158C21.5274 33.4339 21.5482 33.6313 21.5651 33.8299C21.6066 34.3219 21.7896 34.4608 22.2596 34.3531C22.3063 34.3427 22.3531 34.331 22.4271 34.3128C22.5907 34.9607 22.7516 35.5994 22.9126 36.2342C22.0973 36.5471 21.7066 36.4913 21.2093 36.0395C21.1366 36.1434 21.0717 36.2511 20.9938 36.3472C20.7316 36.6704 20.4109 36.9028 19.9968 37.0028C19.3736 37.1521 18.7544 37.3157 18.1338 37.4728C18.1273 37.4741 18.1195 37.4715 18.0741 37.4663Z" fill="#DE192B"/>
<path id="Vector_14" d="M28.3029 32.8251C28.4704 33.4846 28.6287 34.113 28.8027 34.7997C28.3678 34.8763 27.9433 35.036 27.5343 35.0035C26.8709 34.9503 26.4685 34.4791 26.2659 33.8702C26.105 33.3859 25.9985 32.8835 25.8713 32.3889C25.7363 31.8631 25.6051 31.3347 25.4701 30.8011C25.2001 30.8492 24.9911 30.7713 24.8729 30.5272C24.7431 30.2611 24.8054 30.0287 25.0014 29.8132C25.3143 29.4717 25.6129 29.1173 25.9284 28.7772C25.9985 28.7019 26.1361 28.6032 26.1997 28.6279C26.288 28.6616 26.3711 28.7928 26.3971 28.8966C26.6983 30.0521 26.9865 31.2101 27.2812 32.3655C27.3071 32.4668 27.3383 32.5693 27.3811 32.6641C27.4824 32.8874 27.6577 32.9718 27.8978 32.9173C28.0238 32.8887 28.1497 32.8602 28.3029 32.8251Z" fill="#DE192B"/>
<path id="Vector_15" d="M5.79623 35.7783C5.521 35.8302 5.31718 35.7432 5.19904 35.4992C5.0809 35.2538 5.12374 35.0253 5.3042 34.8228C5.61707 34.471 5.92606 34.114 6.24802 33.7686C6.32332 33.6881 6.45834 33.5895 6.53883 33.6089C6.62062 33.6284 6.70241 33.7764 6.72967 33.8816C7.02956 35.037 7.31907 36.195 7.61247 37.3505C7.63584 37.4439 7.6631 37.5387 7.70335 37.627C7.815 37.8711 7.97209 37.9464 8.23433 37.8931C8.36026 37.8672 8.48489 37.8386 8.63159 37.8061C8.79647 38.4566 8.95745 39.0901 9.13142 39.7769C8.7004 39.8548 8.28366 40.0158 7.87991 39.9846C7.20612 39.934 6.7803 39.4653 6.59595 38.8408C6.32072 37.9074 6.10262 36.9571 5.85985 36.0133C5.84167 35.9445 5.8222 35.8744 5.79623 35.7783Z" fill="#DE192B"/>
<path id="Vector_16" d="M23.1668 36.2163C22.9928 35.5282 22.8331 34.8934 22.6695 34.2508C22.737 34.2274 22.7812 34.2105 22.8253 34.1975C23.3005 34.0638 23.4173 33.8678 23.2875 33.3913C23.0889 32.6617 22.615 32.1035 22.123 31.5595C22.0477 31.4751 21.9685 31.3933 21.8789 31.2985C22.293 30.6533 22.7033 30.0133 23.1395 29.333C23.3031 29.5264 23.4433 29.6887 23.5809 29.8536C23.7886 30.1029 23.9963 30.3534 24.2028 30.6053C24.526 31.0012 24.3936 31.4115 23.899 31.5504C23.8769 31.5569 23.8561 31.5699 23.8198 31.5868C24.0379 32.4514 24.2573 33.3134 24.4715 34.1793C24.5312 34.4221 24.5961 34.6688 24.6195 34.9167C24.661 35.3478 24.4767 35.6866 24.0898 35.8748C23.8042 36.0112 23.4913 36.0968 23.1668 36.2163Z" fill="#DE192B"/>
<path id="Vector_17" d="M37.4533 32.5862C37.2456 32.6381 37.0599 32.6849 36.8535 32.7368C36.6198 32.2084 36.39 31.6917 36.1602 31.175C35.689 30.1156 35.2216 29.0563 34.7451 27.9995C34.6815 27.8593 34.6737 27.7658 34.788 27.6399C35.2073 27.1764 35.6085 26.6948 36.0239 26.2287C36.0875 26.1573 36.1953 26.1249 36.2823 26.0742C36.3264 26.1612 36.3965 26.2443 36.4134 26.3378C36.7535 28.3384 37.0872 30.3389 37.4208 32.3395C37.4312 32.4096 37.439 32.481 37.4533 32.5862Z" fill="#DE192B"/>
<path id="Vector_18" d="M57.5067 27.9494C57.1601 28.322 56.7382 28.5206 56.2436 28.4816C55.7554 28.4427 55.3971 28.1402 55.0985 27.7494C54.8518 28.1103 54.5468 28.3271 54.1028 28.357C53.9418 27.7196 53.7808 27.0847 53.625 26.4642C53.6575 26.433 53.6665 26.4148 53.6795 26.4109C54.1482 26.2694 54.1482 26.2694 53.9976 25.8047C53.8016 25.1958 54.0391 24.5467 54.6272 24.1455C54.7493 24.3091 54.8739 24.474 54.9972 24.6414C55.0154 24.6661 55.0388 24.7076 55.0297 24.7284C54.8739 25.0595 55.1141 25.2633 55.2764 25.4866C55.5996 25.9345 55.932 26.3772 56.2552 26.8251C56.3786 26.9964 56.5214 27.1003 56.7473 27.0679C56.794 27.0614 56.8667 27.1029 56.8992 27.1444C57.103 27.4054 57.299 27.6741 57.5067 27.9494Z" fill="#DE192B"/>
<path id="Vector_19" d="M50.0316 27.3105C50.1991 27.9739 50.3601 28.6088 50.5263 29.2657C49.2488 29.589 47.9843 29.9083 46.6899 30.2342C46.5238 29.576 46.3615 28.9372 46.1953 28.2803C47.4845 27.9545 48.7412 27.6377 50.0316 27.3105Z" fill="#DE192B"/>
<path id="Vector_20" d="M53.8851 28.3918C53.2165 28.6177 52.8776 28.693 52.1467 28.2243C51.9001 28.8462 51.408 29.1188 50.7381 29.1824C50.5772 28.5489 50.4162 27.9102 50.25 27.2558C50.4993 27.1922 50.7187 27.1403 50.9368 27.0819C51.2535 26.9975 51.373 26.8015 51.3016 26.4795C51.2613 26.299 51.2146 26.1199 51.1653 25.9161C51.4262 25.8473 51.6742 25.7823 51.9507 25.7109C51.9987 25.9018 52.0429 26.0783 52.0896 26.2549C52.1753 26.5808 52.383 26.7093 52.7102 26.634C52.9309 26.5834 53.149 26.5249 53.3943 26.4626C53.5579 27.1065 53.7202 27.7414 53.8851 28.3918Z" fill="#DE192B"/>
<path id="Vector_21" d="M15.2236 34.8145C15.2548 35.0287 15.2639 35.2312 15.3145 35.4246C15.4287 35.866 15.6988 36.014 16.1389 35.9011C16.5387 35.7998 16.9386 35.6986 17.3592 35.5934C17.5254 36.2477 17.6851 36.8813 17.8642 37.5849C17.2593 37.6914 16.6777 37.842 16.0882 37.8835C15.5534 37.9211 15.173 37.5914 14.9432 37.1162C14.6316 36.4736 14.6044 35.7868 14.6693 35.0923C14.6758 35.0261 14.755 34.9404 14.8212 34.9131C14.9432 34.8612 15.0821 34.8456 15.2236 34.8145Z" fill="#DE192B"/>
<path id="Vector_22" d="M42.1921 31.3733C42.3661 32.0626 42.531 32.7195 42.6971 33.3777C41.5015 33.7192 40.616 33.2778 40.2435 32.3392C39.9578 31.6173 39.9319 30.8695 40.0007 30.1101C40.0124 29.9764 40.0669 29.9062 40.2006 29.8855C40.3045 29.8699 40.4057 29.8374 40.5083 29.8128C40.5382 29.8063 40.5693 29.8037 40.6212 29.7959C40.6485 30.0452 40.6641 30.2866 40.703 30.5229C40.8238 31.2577 41.1626 31.507 41.9013 31.4161C41.9896 31.4031 42.0766 31.3888 42.1921 31.3733Z" fill="#DE192B"/>
<path id="Vector_23" d="M58.1245 25.2878C58.2893 25.9421 58.4503 26.5769 58.61 27.2079C58.3361 27.3364 58.1556 27.3182 57.7908 27.1235C57.7765 27.2338 57.7687 27.3338 57.748 27.4312C57.7272 27.5233 57.6908 27.6116 57.6506 27.7376C57.4338 27.4532 57.2403 27.2027 57.0521 26.9495C57.0261 26.9145 57.0002 26.8561 57.0106 26.8184C57.0807 26.5626 56.9405 26.3861 56.8015 26.2004C56.4458 25.7266 56.0992 25.2462 55.7396 24.775C55.6695 24.6841 55.5526 24.5582 55.4644 24.5634C55.206 24.5789 55.1151 24.4024 54.997 24.244C54.949 24.1804 54.9048 24.1142 54.8594 24.048C55.341 23.7753 56.0239 23.974 56.3822 24.3959C56.5977 24.649 56.821 24.897 57.0313 25.1541C57.2352 25.4033 57.4727 25.4955 57.783 25.3735C57.8804 25.3371 57.9868 25.3215 58.1245 25.2878Z" fill="#DE192B"/>
<path id="Vector_24" d="M4.04951 36.4638C3.93916 36.8001 3.82751 37.1376 3.69899 37.5297C3.34197 37.0325 2.83176 36.7313 2.66689 36.1432C2.59678 35.8926 2.4332 35.6667 2.30078 35.4058C2.89148 34.9968 3.48997 34.5814 4.11832 34.1465C4.19492 34.3451 4.26632 34.5282 4.33513 34.7125C4.43639 34.9864 4.53635 35.2604 4.63632 35.5356C4.85312 36.1302 4.68046 36.4028 4.04951 36.4638Z" fill="#DE192B"/>
<path id="Vector_25" d="M67.9796 22.7793C68.0536 23.087 68.1419 23.3661 68.1847 23.6517C68.2561 24.1152 68.0912 24.4917 67.7122 24.7773C67.3292 25.0655 66.8774 25.1408 66.4113 25.2408C66.2464 24.5865 66.0868 23.9542 65.9219 23.2999C66.6125 23.1259 67.2772 22.9572 67.9796 22.7793Z" fill="#DE192B"/>
<path id="Vector_26" d="M67.902 22.5586C67.6813 22.6158 67.471 22.6716 67.2607 22.7235C67.2243 22.7326 67.1776 22.7326 67.1439 22.717C66.7817 22.5444 66.4207 22.3691 66.0352 22.1808C66.2455 21.6044 66.4675 20.9981 66.6973 20.3711C67.5242 20.8735 67.7514 21.6836 67.902 22.5586Z" fill="#DE192B"/>
<path id="Vector_27" d="M52.5608 29.7681C52.6984 29.5396 52.8386 29.3215 52.9619 29.0943C53.0502 28.9333 53.145 28.9177 53.293 29.0177C53.4682 29.1346 53.6526 29.2384 53.8356 29.3423C53.959 29.4124 53.9875 29.4942 53.9096 29.6188C53.7889 29.8109 53.6734 30.007 53.5617 30.2043C53.489 30.3302 53.4059 30.3471 53.2826 30.2705C53.0567 30.1303 52.8256 29.9992 52.5841 29.8577C52.4478 30.0849 52.3115 30.3056 52.1843 30.5302C52.1064 30.6691 52.0246 30.7184 51.8753 30.6197C51.6935 30.499 51.5014 30.3912 51.3119 30.2835C51.1872 30.2121 51.1626 30.1251 51.2379 30.0018C51.3573 29.8083 51.4767 29.6149 51.5884 29.4176C51.6624 29.2864 51.7494 29.28 51.8688 29.354C52.0934 29.4929 52.3232 29.6266 52.5608 29.7681Z" fill="#DE192B"/>
<path id="Vector_28" d="M17.9445 34.0781C18.0834 33.8471 18.2236 33.6289 18.347 33.4018C18.4353 33.2395 18.53 33.2265 18.6767 33.3252C18.852 33.442 19.035 33.5459 19.2194 33.6497C19.3466 33.7211 19.3674 33.8068 19.2934 33.9288C19.1739 34.1223 19.0584 34.317 18.9455 34.5131C18.8741 34.6377 18.7897 34.6585 18.6663 34.5819C18.4417 34.4416 18.2107 34.3092 17.9692 34.1651C17.829 34.4014 17.6888 34.6286 17.5576 34.8597C17.481 34.9947 17.3928 35.0168 17.2603 34.9311C17.0838 34.8155 16.9046 34.7052 16.7177 34.6078C16.5528 34.5208 16.5437 34.4222 16.6398 34.2768C16.7514 34.108 16.8553 33.9327 16.9514 33.7549C17.0306 33.6095 17.1214 33.5796 17.2642 33.6705C17.4823 33.8094 17.7082 33.9379 17.9445 34.0781Z" fill="#DE192B"/>
<path id="Vector_29" d="M66.5298 19.7097C66.387 19.9473 66.2494 20.1654 66.1221 20.39C66.0403 20.5367 65.9495 20.56 65.808 20.4653C65.6314 20.3484 65.4483 20.2446 65.264 20.142C65.1316 20.068 65.0978 19.9823 65.1848 19.846C65.3029 19.6616 65.4146 19.4721 65.5223 19.2813C65.5989 19.1449 65.6872 19.1242 65.8196 19.2086C66.0455 19.3514 66.2779 19.4851 66.5077 19.6227C66.6401 19.4007 66.7777 19.1813 66.9024 18.9528C66.9868 18.7983 67.0789 18.762 67.2334 18.8645C67.4087 18.9814 67.593 19.0852 67.7774 19.1891C67.915 19.2657 67.9306 19.3592 67.8488 19.489C67.7359 19.6668 67.6229 19.846 67.5242 20.0329C67.4437 20.1848 67.3503 20.203 67.2101 20.116C66.9958 19.981 66.7764 19.8564 66.5298 19.7097Z" fill="#DE192B"/>
<path id="Vector_30" d="M42.6165 29.3936C42.4477 29.6598 42.2867 29.9207 42.114 30.1726C42.0972 30.1972 41.9907 30.1843 41.9427 30.1583C41.7363 30.0466 41.5376 29.922 41.3338 29.8065C41.2092 29.7364 41.1858 29.652 41.2637 29.5286C41.3896 29.3313 41.4987 29.1223 41.635 28.9315C41.6713 28.8808 41.7986 28.838 41.8479 28.8626C42.079 28.9782 42.2997 29.1145 42.5191 29.2521C42.5606 29.2781 42.5814 29.3391 42.6165 29.3936Z" fill="#DE192B"/>
<path id="Vector_31" d="M60.9925 22.1606C60.9081 22.306 60.8354 22.4397 60.7563 22.5709C60.4291 23.1083 60.5433 23.0928 59.9994 22.763C59.4827 22.4488 59.5034 22.5644 59.8163 22.0386C60.1344 21.505 60.0072 21.5115 60.5693 21.8477C60.6732 21.9101 60.7796 21.9685 60.8796 22.036C60.9237 22.0645 60.951 22.1139 60.9925 22.1606Z" fill="#DE192B"/>
<path id="Vector_32" d="M21.8969 20.817C21.8359 20.4535 21.7606 20.0575 21.6646 19.607C21.5685 19.1565 21.4594 18.6853 21.3387 18.1867L21.2387 17.7752C20.9337 17.8375 20.6286 17.9037 20.3274 17.9725C20.0236 18.0413 19.7224 18.1114 19.4238 18.1841C19.1226 18.2568 18.8227 18.3321 18.5215 18.4113C18.219 18.4892 17.9178 18.5697 17.6166 18.6502L17.7179 19.0669C17.9464 20.0069 18.1048 20.6352 18.1931 20.952C18.2813 21.2701 18.3579 21.4986 18.4293 21.6582L17.5712 21.8673C17.4972 21.4505 17.4063 20.9909 17.2947 20.4703C17.1804 19.9523 17.0402 19.337 16.8676 18.6294C16.6897 17.8959 16.543 17.3286 16.4326 16.9261C16.321 16.525 16.2119 16.1771 16.1133 15.8875L16.9753 15.6785C16.9831 15.8434 17.0156 16.0641 17.0714 16.3406C17.1272 16.6172 17.2505 17.1455 17.4401 17.9245L17.5232 18.2672C17.7361 18.2179 17.9659 18.1647 18.2151 18.1049C18.467 18.0452 18.8396 17.9556 19.3368 17.8349C19.8314 17.7142 20.2027 17.622 20.452 17.561C20.7013 17.4987 20.9324 17.4402 21.1427 17.387L21.0596 17.0443C20.9596 16.6327 20.8584 16.2446 20.7571 15.8811C20.6545 15.5188 20.5494 15.1696 20.4403 14.836L21.2985 14.627C21.3569 14.9905 21.4335 15.3851 21.5218 15.8071C21.6126 16.2303 21.736 16.7626 21.8931 17.4091C22.0294 17.9712 22.1696 18.5178 22.3111 19.0501C22.4539 19.5836 22.5993 20.0952 22.7538 20.608L21.8969 20.817Z" fill="#313131"/>
<path id="Vector_33" d="M27.0078 20.882L28.2697 20.5756C29.0201 20.3939 29.3628 20.7444 29.4615 21.1494C29.5446 21.4896 29.3654 21.8362 29.011 21.9699L29.0214 21.9764C29.1032 21.9427 29.764 21.9414 29.9185 22.5749C30.0574 23.1474 29.6926 23.5642 29.0357 23.7239L27.7738 24.0302L27.0078 20.882ZM27.5492 22.262L28.6176 22.0024C29.1421 21.8752 29.3511 21.5441 29.2577 21.1611C29.1473 20.7067 28.7306 20.6405 28.3112 20.7431L27.2428 21.0027L27.5492 22.262ZM27.927 23.816L28.9954 23.5564C29.5511 23.4214 29.8393 23.089 29.725 22.6216C29.5939 22.0842 29.0733 22.0712 28.6592 22.1712L27.5907 22.4308L27.927 23.816Z" fill="#313131"/>
<path id="Vector_34" d="M30.2745 22.2451C30.394 22.7812 30.7964 23.1954 31.356 23.0604C31.7831 22.9565 32.0271 22.628 32.0038 22.1892L32.1713 22.149C32.2115 22.6994 31.9311 23.0759 31.391 23.2071C30.7289 23.368 30.2525 22.9318 30.1096 22.3035C29.9487 21.6842 30.1291 21.0013 30.8133 20.8352C31.5247 20.6625 31.9778 21.1441 32.1037 21.8011L30.2745 22.2451ZM31.9025 21.6959C31.7766 21.2207 31.3715 20.8546 30.8496 20.9806C30.3459 21.1026 30.1655 21.6414 30.2395 22.0997L31.9025 21.6959Z" fill="#313131"/>
<path id="Vector_35" d="M34.2941 22.001C34.3266 22.1334 34.3604 22.2749 34.511 22.2385C34.5421 22.2308 34.5798 22.2165 34.6304 22.1944L34.6641 22.3346C34.6187 22.3567 34.5772 22.3749 34.5317 22.3865C34.2656 22.4515 34.1929 22.3164 34.1474 22.1308L34.1176 22.0101L34.1085 22.0126C34.0695 22.3086 33.8203 22.615 33.388 22.7202C32.9595 22.8241 32.5896 22.741 32.474 22.2658C32.3455 21.7374 32.7778 21.5154 33.1439 21.3947C33.8826 21.1597 33.9021 21.1026 33.8125 20.7313C33.7878 20.63 33.5905 20.3145 33.0725 20.4405C32.6661 20.5391 32.448 20.8144 32.5207 21.2129L32.3533 21.2532C32.2546 20.7508 32.5026 20.4236 33.0374 20.2938C33.4334 20.1977 33.8618 20.225 33.9748 20.6923L34.2941 22.001ZM33.9164 21.1727C33.8203 21.3544 33.4542 21.4258 33.1374 21.5492C32.7518 21.6907 32.561 21.8854 32.6428 22.2243C32.709 22.4982 32.9609 22.6696 33.3581 22.5735C34.1215 22.3878 34.0475 21.7154 34.0189 21.5959L33.9164 21.1727Z" fill="#313131"/>
<path id="Vector_36" d="M36.6832 21.8631L36.5157 21.9033L36.3975 21.4191L36.3898 21.4217C36.3573 21.7891 36.06 22.0708 35.7082 22.1565C34.9072 22.3512 34.7436 21.7125 34.6761 21.4347L34.3359 20.0326L34.5034 19.9923L34.8526 21.4269C34.9098 21.6593 35.0578 22.1604 35.677 22.0098C36.1846 21.8865 36.3988 21.4204 36.2638 20.8647L35.9652 19.6379L36.1327 19.5977L36.6832 21.8631Z" fill="#313131"/>
<path id="Vector_37" d="M37.4524 19.4308L36.9578 19.5515L37.3434 21.1354C37.4317 21.5002 37.6134 21.495 37.9289 21.408L37.9639 21.5521C37.6251 21.6573 37.2824 21.6897 37.1759 21.1756L36.7903 19.5918L36.371 19.693L36.3359 19.5476L36.7553 19.4464L36.5839 18.7414L36.7514 18.7012L36.9227 19.4061L37.4174 19.2854L37.4524 19.4308Z" fill="#313131"/>
<path id="Vector_38" d="M37.4062 19.286L37.6036 19.238L38.9499 21.1022L39.2238 18.8446L39.4146 18.7979L39.0524 21.5436C39.0135 21.7864 38.981 21.9772 38.9018 22.0759C38.8058 22.1979 38.6526 22.2434 38.3968 22.3057L38.3618 22.1603C38.6006 22.1019 38.7136 22.0435 38.7993 21.9007C38.8499 21.8176 38.8707 21.6358 38.9031 21.3087L37.4062 19.286Z" fill="#313131"/>
<path id="Vector_39" d="M24.2743 20.2402C24.225 19.9494 24.164 19.6404 24.0874 19.2886C24.0108 18.9354 23.9095 18.4979 23.7823 17.976L23.6057 17.249C23.3786 16.3143 23.2137 15.6548 23.1098 15.2666C23.0073 14.8784 22.9112 14.5435 22.8203 14.2592L23.6382 14.0605C23.6668 14.2631 23.7083 14.4955 23.7654 14.7616C23.8213 15.0264 23.9004 15.3692 24.0043 15.795L24.3159 17.0764L24.6677 18.5239C24.7807 18.9861 24.8663 19.3197 24.9235 19.521C24.9793 19.7235 25.0351 19.891 25.0922 20.0428L24.2743 20.2402Z" fill="#313131"/>
<path id="Vector_40" d="M26.6311 19.6669C26.5207 19.1489 26.413 18.6517 26.3026 18.1558C26.1923 17.6586 26.078 17.1678 25.9586 16.6758C25.8262 16.1292 25.6964 15.6151 25.5691 15.1296C25.4419 14.6427 25.3095 14.1624 25.1719 13.6872L25.9937 13.4873C26.1092 14.065 26.2235 14.6168 26.3377 15.1465C26.4519 15.6735 26.5623 16.1656 26.6726 16.6213C26.7869 17.0925 26.8985 17.5261 27.0037 17.9234C27.1089 18.322 27.2153 18.7062 27.3231 19.0762C27.3867 19.062 27.4581 19.0477 27.536 19.0321C27.6139 19.0139 27.7437 18.9828 27.9216 18.9399C28.3032 18.8464 28.6408 18.753 28.9316 18.6595C29.2224 18.566 29.4717 18.4687 29.6781 18.3713C29.6846 18.3973 29.6937 18.4401 29.7053 18.4985C29.7157 18.5582 29.7274 18.605 29.7365 18.64C29.743 18.6647 29.7521 18.7062 29.7715 18.7673C29.7884 18.827 29.7975 18.862 29.8027 18.8971L26.6311 19.6669Z" fill="#313131"/>
<path id="Vector_41" d="M31.4101 16.125C31.3491 16.482 31.3088 16.7689 31.2556 17.1765C31.2011 17.5855 31.1453 18.0464 31.0894 18.5825L30.5117 18.7227C30.7882 17.2882 31.0128 16.1172 31.1985 15.089C31.3984 13.992 31.6061 13.0637 31.771 12.0822L31.9385 12.042C32.5954 12.9702 33.2341 13.7777 33.9053 14.6904C34.5765 15.6057 35.2516 16.5015 35.9332 17.405L35.0595 17.6179C34.8777 17.3232 34.6869 17.0363 34.4804 16.7325C34.2831 16.4404 33.0822 14.8111 33.0822 14.8111C33.0446 14.7553 32.9472 14.6203 32.7927 14.4087C32.6356 14.1984 32.337 13.7959 31.8931 13.2065L31.4659 15.703L31.4101 16.125Z" fill="#313131"/>
<path id="Vector_42" d="M36.6575 17.2286C36.5017 16.4302 36.3329 15.6058 36.1447 14.7399C35.9565 13.874 35.7461 12.9743 35.5189 12.0396L35.3203 11.2204L35.4839 11.1801C36.2875 11.7539 37.0963 12.2135 37.9596 12.7809C38.8243 13.3495 39.7992 13.9662 40.8898 14.6322C40.8833 14.6036 40.8729 14.5594 40.8612 14.4984C40.7989 14.1946 40.7522 13.9817 40.721 13.8558C40.5496 13.1522 40.3796 12.4836 40.2147 11.8513C40.0446 11.2191 39.8875 10.6478 39.7369 10.1454L40.3043 10.0078C40.4419 10.6829 40.5873 11.3658 40.7379 12.0499C40.8911 12.7341 41.0546 13.4313 41.2273 14.1414C41.2896 14.3985 41.3584 14.6737 41.4324 14.9684C41.5064 15.2618 41.5752 15.5214 41.6986 16.0031L41.5856 16.0304C41.2351 15.7603 40.8586 15.5929 40.39 15.2735C39.9239 14.9541 39.3799 14.5919 38.7607 14.1946L36.0941 12.4732C36.1057 12.5407 36.1408 12.7095 36.1992 12.9795C36.2563 13.2495 36.3031 13.465 36.3433 13.6273C36.4303 13.9843 36.5485 14.4387 36.6964 14.9892C36.8432 15.5422 37.0327 16.2329 37.2664 17.0806L36.6575 17.2286Z" fill="#313131"/>
<path id="Vector_43" d="M43.9982 9.10915C44.4981 8.98712 44.8966 8.89884 45.203 8.89494C45.512 8.88975 45.795 8.93389 46.0546 9.02736C46.4766 9.18575 46.8349 9.44669 47.1283 9.8141C47.4204 10.1815 47.6333 10.6359 47.7657 11.1785C48.0189 12.2171 47.915 13.0805 47.4593 13.7672C47.0037 14.4553 46.2117 14.9357 45.0836 15.2109C44.9485 15.2433 44.7369 15.2888 44.4487 15.3472C44.1605 15.4043 43.9424 15.4524 43.7944 15.4887C43.749 15.5004 43.6451 15.5277 43.4841 15.5692C43.3231 15.6146 43.1933 15.6484 43.0934 15.677C43.0271 15.3407 42.9467 14.9694 42.8532 14.5618C42.7584 14.1567 42.6078 13.5284 42.4014 12.678C42.1872 11.7952 42.0288 11.1552 41.9275 10.7553C41.825 10.3555 41.7302 9.99845 41.6406 9.68297L43.9982 9.10915ZM43.7944 15.1057C43.9865 15.0746 44.1579 15.0434 44.3098 15.0149C44.4604 14.985 44.5993 14.9564 44.7291 14.924C45.6976 14.689 46.3649 14.2917 46.7323 13.7348C47.0984 13.1791 47.1724 12.4521 46.9543 11.5537C46.7258 10.6138 46.3675 9.98287 45.8768 9.6622C45.3874 9.33894 44.7032 9.28571 43.8256 9.49862C43.5828 9.55704 43.3543 9.61676 43.1414 9.67648C42.9272 9.7362 42.7195 9.79722 42.5195 9.86083C42.5961 10.2321 42.6766 10.6151 42.7675 11.0111C42.8571 11.407 42.9583 11.8264 43.0661 12.2717C43.1985 12.8169 43.3231 13.3219 43.4413 13.7854C43.5607 14.2489 43.6789 14.689 43.7944 15.1057Z" fill="#313131"/>
<path id="Vector_44" d="M29.9297 16.3295C29.9297 16.3295 31.9796 15.0105 34.2736 15.3986L34.4554 15.8985C34.4554 15.8985 31.9913 15.4649 29.9933 16.593L29.9297 16.3295Z" fill="#313131"/>
</g>
</svg>
