<svg width="26" height="24" viewBox="0 0 26 24" fill="none" xmlns="http://www.w3.org/2000/svg">
<g id="Group 922">
<circle id="Ellipse 45" cx="5.18047" cy="11.8992" r="0.7" fill="#313131"/>
<path id="Vector" d="M24.3989 6.14148C23.3589 2.57148 19.9589 0.851451 17.3389 1.02145C16.0089 1.11145 14.9489 1.52148 14.0189 2.11148C13.7089 2.31148 13.4289 2.56145 13.1189 2.77145C12.8389 2.96145 12.7589 2.97146 12.5089 2.78146C12.1989 2.53146 11.8788 2.29147 11.5488 2.07147C10.6388 1.49147 9.58895 1.10147 8.28895 1.01147C5.66895 0.841472 2.26889 2.56147 1.22889 6.13147C0.908888 7.21147 0.938888 8.52147 1.22889 10.0715C1.22889 10.0715 1.46886 11.9115 3.69886 14.5915C5.22886 16.4315 8.15885 19.2015 10.3189 21.0415L12.0488 22.5815C12.0488 22.5815 12.9089 23.2515 13.7589 22.4315V22.4215L15.3189 21.0415C17.4789 19.2015 20.4088 16.4315 21.9388 14.5915C22.0388 14.4615 22.1389 14.3415 22.2389 14.2215L22.5588 13.8115C24.2188 11.5615 24.4089 10.0715 24.4089 10.0715C24.6889 8.53147 24.7189 7.22148 24.3989 6.14148Z" stroke="#313131" stroke-width="1.38" stroke-miterlimit="10" stroke-linecap="round"/>
<path id="Vector_2" d="M7.53805 4.27148C7.53805 4.27148 3.03802 4.89149 4.13802 9.90149" stroke="#313131" stroke-width="1.38" stroke-miterlimit="10" stroke-linecap="round"/>
</g>
</svg>
