<svg width="18" height="18" viewBox="0 0 18 18" fill="none" xmlns="http://www.w3.org/2000/svg">
<g clip-path="url(#clip0_405_10263)">
<path d="M9 6.71484L9.62227 6.08203C9.67852 6.02578 9.70664 5.97305 9.79805 5.92031C10.8352 5.03789 12.3855 5.09062 13.3629 6.08203C14.3965 7.12969 14.3965 8.83125 13.3629 9.84727L10.1848 13.1062C9.8543 13.4402 9.42539 13.6055 8.99648 13.5738C8.56758 13.602 8.14219 13.4367 7.81523 13.1062L4.63711 9.84727C3.60352 8.83125 3.60352 7.12969 4.63711 6.08203C5.61445 5.09062 7.16484 5.03789 8.20195 5.92031C8.26172 5.97305 8.32148 6.02578 8.37773 6.08203L9 6.71484ZM9.3832 12.3152L12.5613 9.08789C13.1625 8.47969 13.1625 7.48125 12.5613 6.87305C11.9707 6.27187 11.018 6.27187 10.4238 6.87305L9 8.31797L7.57617 6.87305C6.98203 6.27187 6.0293 6.27187 5.43867 6.87305C4.8375 7.48125 4.8375 8.47969 5.43867 9.08789L8.6168 12.3152C8.72578 12.4277 8.86289 12.4488 8.96836 12.4488C9.13711 12.4488 9.27422 12.4277 9.3832 12.3152ZM18 9C18 13.9711 13.9711 18 9 18C4.02891 18 0 13.9711 0 9C0 4.02891 4.02891 0 9 0C13.9711 0 18 4.02891 18 9ZM9 1.125C4.65117 1.125 1.125 4.65117 1.125 9C1.125 13.3488 4.65117 16.875 9 16.875C13.3488 16.875 16.875 13.3488 16.875 9C16.875 4.65117 13.3488 1.125 9 1.125Z" fill="#313131"/>
</g>
<defs>
<clipPath id="clip0_405_10263">
<rect width="18" height="18" fill="white"/>
</clipPath>
</defs>
</svg>
