<svg width="26" height="26" viewBox="0 0 26 26" fill="none" xmlns="http://www.w3.org/2000/svg">
<g id="Group 926">
<g id="Group 735">
<path id="Vector" d="M23.9521 9.27008L15.2121 2.0001C14.6821 1.5901 13.8321 1.0001 12.8421 1.0001C11.7621 0.990095 10.7322 1.77009 10.3922 2.06009L1.71213 9.27008C0.872129 9.97008 0.762119 11.2101 1.45212 12.0501C2.15212 12.8901 3.39215 13.0001 4.23215 12.3101C4.30215 12.2501 10.2922 7.2701 10.3622 7.2201C10.3722 7.2101 11.5922 6.02007 12.7722 6.04007C13.9122 6.06007 14.4322 6.51008 15.2422 7.17008C17.3022 8.88008 19.3621 10.5901 21.4221 12.3101C22.2621 13.0101 23.5021 12.8901 24.2021 12.0501C24.9021 11.2101 24.7921 9.96008 23.9521 9.27008Z" stroke="#313131" stroke-width="1.38" stroke-miterlimit="10"/>
<path id="Vector_2" d="M21.4222 12.2998C19.3622 10.5898 17.3023 8.87982 15.2423 7.15982C14.4423 6.48982 13.9123 6.04985 12.7723 6.02985C11.5823 5.99985 10.3723 7.19984 10.3623 7.20984C10.2923 7.26984 4.3023 12.2498 4.2323 12.2998C3.9823 12.5098 3.69234 12.6298 3.40234 12.6998C3.40234 12.7198 3.41223 12.7498 3.41223 12.7799V22.4898C3.41223 23.6698 4.37225 24.6298 5.55225 24.6298H10.0923V17.6598C10.0923 16.2898 11.2023 15.1798 12.5723 15.1798H13.1323C14.5023 15.1798 15.6123 16.2898 15.6123 17.6598V24.6298H20.1523C21.3323 24.6298 22.2922 23.6698 22.2922 22.4898V12.7098C21.9822 12.6498 21.6822 12.5198 21.4222 12.2998Z" fill="#313131"/>
<path id="Vector_3" d="M21.4222 12.2998C19.3622 10.5898 17.3023 8.87982 15.2423 7.15982C14.4423 6.48982 13.9123 6.04985 12.7723 6.02985C11.5823 5.99985 10.3723 7.19984 10.3623 7.20984C10.2923 7.26984 4.3023 12.2498 4.2323 12.2998C3.9823 12.5098 3.69234 12.6298 3.40234 12.6998C3.40234 12.7198 3.41223 12.7499 3.41223 12.7799V22.4898C3.41223 23.6698 4.37225 24.6298 5.55225 24.6298H20.1423C21.3223 24.6298 22.2822 23.6698 22.2822 22.4898V12.7098C21.9822 12.6498 21.6822 12.5198 21.4222 12.2998Z" stroke="#313131" stroke-width="1.38" stroke-miterlimit="10"/>
</g>
</g>
</svg>
