<svg width="26" height="26" viewBox="0 0 26 26" fill="none" xmlns="http://www.w3.org/2000/svg">
<g id="Group 1283">
<path id="Vector" d="M7.89627 11.6607C9.82374 11.6607 11.3863 10.0982 11.3863 8.17068C11.3863 6.24321 9.82374 4.68066 7.89627 4.68066C5.9688 4.68066 4.40625 6.24321 4.40625 8.17068C4.40625 10.0982 5.9688 11.6607 7.89627 11.6607Z" stroke="#BE1E2D" stroke-width="1.38" stroke-miterlimit="10"/>
<path id="Vector_2" d="M12.82 1.30078C11.85 1.30078 10.91 1.43076 10 1.65076C12.75 2.54076 14.73 5.12078 14.75 8.17078C14.76 9.00078 14.4 10.3508 13.84 11.5708C12.75 13.7108 10.64 17.2408 8.29001 19.8108C8.27001 19.8308 8.23002 19.8508 8.21002 19.8708C8.13002 19.9408 8.02002 19.9808 7.90002 19.9808H7.89001H7.88C7.76 19.9808 7.65001 19.9408 7.57001 19.8708C7.54001 19.8508 7.51002 19.8408 7.49002 19.8108C5.14002 17.2508 3.03 13.7208 1.94 11.5708C1.72 11.0908 1.55002 10.6008 1.40002 10.1208C1.15002 11.0808 1 12.0808 1 13.1208C1 19.6408 6.29003 24.9308 12.81 24.9308C19.33 24.9308 24.62 19.6408 24.62 13.1208C24.63 6.59076 19.34 1.30078 12.82 1.30078Z" stroke="#BE1E2D" stroke-width="1.38" stroke-miterlimit="10"/>
<path id="Vector_3" d="M23.8703 16.6611C23.8703 16.6611 21.1703 14.0511 19.4303 14.9811C19.4303 14.9811 18.5103 15.5011 17.4003 14.8511C17.4003 14.8511 16.3502 14.2311 15.6002 15.7911C15.6002 15.7911 14.5602 17.3711 15.8202 18.6011C15.8202 18.6011 18.0503 20.2911 16.0303 21.2311C16.0303 21.2311 13.0202 22.1211 14.7602 24.9911" stroke="#BE1E2D" stroke-width="1.38" stroke-miterlimit="10" stroke-linejoin="round"/>
<path id="Vector_4" d="M7.90926 1.33105C7.89926 1.33105 7.89928 1.33105 7.89928 1.33105C7.88928 1.33105 7.88927 1.33105 7.88927 1.33105C4.10927 1.33105 1.07927 4.40103 1.03927 8.18103C1.02927 9.01103 1.38927 10.3611 1.94927 11.5811C3.03927 13.7211 5.14926 17.251 7.49926 19.821C7.51926 19.841 7.55927 19.861 7.57927 19.881C7.65927 19.951 7.76927 19.9911 7.88927 19.9911H7.89928H7.90926C8.02926 19.9911 8.13926 19.951 8.21926 19.881C8.24926 19.861 8.27928 19.851 8.29928 19.821C10.6493 17.261 12.7593 13.7311 13.8493 11.5811C14.4093 10.3611 14.7693 9.01103 14.7593 8.18103C14.7293 4.39103 11.6993 1.33105 7.90926 1.33105Z" stroke="#BE1E2D" stroke-width="1.38" stroke-miterlimit="10" stroke-linejoin="round"/>
</g>
</svg>
