<svg width="107" height="108" viewBox="0 0 107 108" fill="none" xmlns="http://www.w3.org/2000/svg">
<g id="Group 1640">
<path id="Vector" d="M43.6247 69.5317C44.1745 70.0927 44.9236 70.4138 45.709 70.425C46.0887 70.4474 46.4689 70.393 46.827 70.2651C47.1851 70.1372 47.5138 69.9384 47.7933 69.6806L76.5271 42.4357C77.093 41.8988 77.4256 41.1613 77.4534 40.3818C77.4813 39.6022 77.2021 38.8429 76.6759 38.267C76.0969 37.7226 75.3396 37.4073 74.5452 37.3799C73.7509 37.3525 72.9736 37.6149 72.3584 38.1182L45.8579 63.2788L34.2453 51.0707C33.9803 50.7819 33.6582 50.5513 33.2994 50.3935C32.9406 50.2358 32.553 50.1543 32.161 50.1543C31.7691 50.1543 31.3814 50.2358 31.0226 50.3935C30.6638 50.5513 30.3417 50.7819 30.0767 51.0707C29.5108 51.6075 29.1782 52.345 29.1503 53.1246C29.1225 53.9041 29.4017 54.6634 29.9278 55.2393L43.6247 69.5317Z" fill="#86DF84"/>
<g id="Group 1639">
<path id="Vector_2" d="M53.2988 107.198C63.8403 107.198 74.1451 104.072 82.91 98.2158C91.675 92.3592 98.5064 84.0351 102.541 74.296C106.575 64.5569 107.63 53.8403 105.574 43.5013C103.517 33.1624 98.4407 23.6654 90.9868 16.2115C83.5328 8.7575 74.0359 3.68128 63.6969 1.62473C53.3579 -0.431815 42.6413 0.623679 32.9022 4.65774C23.1632 8.6918 14.839 15.5232 8.98247 24.2882C3.12592 33.0531 0 43.3579 0 53.8994C0 68.0351 5.6154 81.5919 15.6109 91.5874C20.5601 96.5366 26.4357 100.463 32.9022 103.141C39.3688 105.82 46.2995 107.198 53.2988 107.198ZM53.2988 6.55579C62.6625 6.55579 71.8159 9.33244 79.6015 14.5346C87.3872 19.7368 93.4553 27.1309 97.0386 35.7818C100.622 44.4327 101.56 53.9519 99.7328 63.1357C97.906 72.3195 93.3969 80.7553 86.7758 87.3764C80.1547 93.9975 71.7189 98.5066 62.5351 100.333C53.3513 102.16 43.8321 101.223 35.1812 97.6392C26.5303 94.0559 19.1362 87.9878 13.934 80.2021C8.73183 72.4165 5.95518 63.2631 5.95518 53.8994C5.95518 41.3431 10.9431 29.3011 19.8218 20.4224C28.7005 11.5438 40.7425 6.55579 53.2988 6.55579Z" fill="#86DF84"/>
</g>
</g>
</svg>
