<svg width="19" height="14" viewBox="0 0 19 14" fill="none" xmlns="http://www.w3.org/2000/svg">
<g id="Group 1634">
<g id="Group 1354">
<g id="Group 1354_2">
<path id="Vector" d="M0.651563 6.99072L0.651564 6.99069C0.651607 6.98971 0.652944 6.95939 0.673675 6.89229C0.693855 6.82696 0.727502 6.74248 0.778352 6.63925C0.880234 6.43243 1.03827 6.17638 1.2528 5.88657C1.68119 5.30787 2.31029 4.62763 3.09362 3.97857C4.66837 2.67375 6.79777 1.55 9.10156 1.55C11.4054 1.55 13.5348 2.67375 15.1095 3.97857C15.8928 4.62763 16.5219 5.30787 16.9503 5.88657C17.1649 6.17638 17.3229 6.43243 17.4248 6.63925C17.4756 6.74248 17.5093 6.82696 17.5294 6.89229C17.5506 6.9607 17.5516 6.99087 17.5516 6.99072V6.99074C17.5515 6.99173 17.5502 7.02204 17.5294 7.08915C17.5093 7.15447 17.4756 7.23896 17.4248 7.34218C17.3229 7.549 17.1649 7.80505 16.9503 8.09487C16.5219 8.67357 15.8928 9.35381 15.1095 10.0029C13.5348 11.3077 11.4054 12.4314 9.10156 12.4314C6.79777 12.4314 4.66837 11.3077 3.09362 10.0029C2.31029 9.35381 1.68119 8.67357 1.2528 8.09487C1.03827 7.80505 0.880234 7.549 0.778352 7.34218C0.727502 7.23896 0.693855 7.15447 0.673675 7.08915C0.652944 7.02204 0.651607 6.99173 0.651564 6.99074L0.651563 6.99072Z" stroke="#6C6C6C" stroke-width="1.1"/>
<path id="Vector_2" d="M9.01953 3.4082C7.08959 3.4082 5.51953 4.97826 5.51953 6.9082C5.51953 8.83814 7.08959 10.4082 9.01953 10.4082C10.9495 10.4082 12.5195 8.83814 12.5195 6.9082C12.5195 4.97826 10.9495 3.4082 9.01953 3.4082Z" fill="#6C6C6C"/>
</g>
</g>
<g id="Group 1355">
<path id="Vector 109" d="M2.90234 1.40039L14.5696 13.0677" stroke="white" stroke-width="1.1" stroke-linecap="round"/>
<path id="Vector 108" d="M3.70312 0.700195L15.3704 12.3675" stroke="#6C6C6C" stroke-width="1.1" stroke-linecap="round"/>
</g>
</g>
</svg>
