<svg width="63" height="63" viewBox="0 0 63 63" fill="none" xmlns="http://www.w3.org/2000/svg">
<g id="Group 1293">
<path id="Vector" d="M56.6937 46.6058H46.7969V36.709" stroke="#DE192B" stroke-width="1.1" stroke-miterlimit="10" stroke-linecap="round" stroke-linejoin="round"/>
<path id="Vector_2" d="M11.5027 22.53L1 16.4404L1.02019 46.6963L27.5395 62.1272V31.9319L17.2691 25.9131" stroke="#313131" stroke-width="1.1" stroke-miterlimit="10" stroke-linecap="round" stroke-linejoin="round"/>
<path id="Vector_3" d="M53.9868 16.4511L27.5281 1L1.03906 16.441" stroke="#313131" stroke-width="1.1" stroke-miterlimit="10" stroke-linecap="round" stroke-linejoin="round"/>
<path id="Vector_4" d="M53.99 32.9519V16.4505L53.9597 16.4404L27.5312 31.9319V32.0228V62.1272L35.7718 57.4212" stroke="#313131" stroke-width="1.1" stroke-miterlimit="10" stroke-linecap="round" stroke-linejoin="round"/>
<path id="Vector_5" d="M37.3754 7.57372L11.7852 22.6209V31.3462L16.8951 34.3051L16.9355 25.6303L43.1418 10.2095L37.6077 6.9375" stroke="#313131" stroke-width="1.1" stroke-miterlimit="10" stroke-linecap="round" stroke-linejoin="round"/>
<path id="Vector_6" d="M46.9477 62.1278C55.3584 62.1278 62.1766 55.3096 62.1766 46.8989C62.1766 38.4881 55.3584 31.6699 46.9477 31.6699C38.537 31.6699 31.7188 38.4881 31.7188 46.8989C31.7188 55.3096 38.537 62.1278 46.9477 62.1278Z" stroke="#DE192B" stroke-width="1.1" stroke-miterlimit="10"/>
</g>
</svg>
