<svg width="26" height="26" viewBox="0 0 26 26" fill="none" xmlns="http://www.w3.org/2000/svg">
<path d="M14.7494 16.1816H10.8594C9.75937 16.1816 8.85938 17.0816 8.85938 18.1816V24.6317H16.7494V18.1816C16.7494 17.0716 15.8494 16.1816 14.7494 16.1816ZM12.0494 21.3416C12.0494 21.7216 11.7394 22.0316 11.3594 22.0316C10.9794 22.0316 10.6694 21.7216 10.6694 21.3416V19.8817C10.6694 19.5017 10.9794 19.1917 11.3594 19.1917C11.7394 19.1917 12.0494 19.5017 12.0494 19.8817V21.3416Z" fill="#BE1E2D"/>
<path d="M16.6089 7.32196C16.6089 7.00196 16.2989 4.76195 15.6689 1.68195C15.5289 0.991946 16.5689 1.01196 15.3489 1.01196H13.2589H12.2889L10.2289 1.00195C9.09888 1.00195 10.0289 1.15195 9.88885 1.84195C9.22885 5.09195 8.90889 7.01195 8.92889 7.47195C8.89889 7.83195 8.87891 8.05196 8.87891 8.35196C8.87891 10.532 10.5989 12.3019 12.7789 12.3019C14.9589 12.3019 16.6389 10.532 16.6389 8.35196C16.6489 8.04196 16.6289 7.76196 16.6089 7.32196Z" fill="#BE1E2D" stroke="#BE1E2D" stroke-width="1.38" stroke-miterlimit="10"/>
<path d="M1 8.1123V22.6423C1 23.7423 1.9 24.6423 3 24.6423H22.61C23.71 24.6423 24.6 23.7423 24.6 22.6423L24.61 8.23233" stroke="#BE1E2D" stroke-width="1.38" stroke-miterlimit="10"/>
<path d="M24.5491 7.4819C24.5491 7.4819 24.5291 5.63189 23.0891 2.91189C23.0291 2.79189 22.959 2.67187 22.889 2.55187C22.759 2.33187 22.229 0.941886 20.639 1.00189H15.5391C15.5391 1.00189 16.029 3.53188 16.389 5.53188C16.529 6.28188 16.6291 6.91189 16.6891 8.35189C16.7891 10.5319 18.459 12.3019 20.639 12.3019C22.819 12.3019 24.5891 10.5319 24.5891 8.35189C24.6091 8.05189 24.5491 7.4819 24.5491 7.4819Z" fill="#BE1E2D" stroke="#BE1E2D" stroke-width="1.38" stroke-miterlimit="10" stroke-linecap="round"/>
<path d="M1.04999 7.48172C1.04999 7.48172 1.06999 5.1417 3.10999 1.8717C3.53999 1.1817 3.69995 1.01172 4.94995 1.01172H10.05C10.05 1.01172 9.55995 3.54172 9.19995 5.54172C9.05995 6.29172 8.95996 6.92169 8.89996 8.36169C8.79996 10.5417 7.12995 12.3117 4.94995 12.3117C2.76995 12.3117 1 10.5417 1 8.36169C1 8.05169 1.04999 7.48172 1.04999 7.48172Z" fill="#BE1E2D" stroke="#BE1E2D" stroke-width="1.38" stroke-miterlimit="10"/>
</svg>
