<svg width="17" height="17" viewBox="0 0 17 17" fill="none" xmlns="http://www.w3.org/2000/svg">
<g id="Vector">
<path id="Vector_2" d="M16.7727 6.97275C16.6396 6.54827 16.2926 6.23222 15.8699 6.14657L11.8516 5.33439L9.87455 1.60022C9.66567 1.20547 9.26659 0.960938 8.83203 0.960938C8.39922 0.960938 7.99838 1.20547 7.78951 1.60022L5.81244 5.33439L1.79232 6.14669C1.36961 6.23222 1.02435 6.5484 0.891241 6.97107C0.75649 7.39554 0.855879 7.86185 1.14723 8.18848L3.94808 11.3253L3.44619 15.5785C3.39403 16.024 3.57918 16.4623 3.9295 16.7243C4.27981 16.9881 4.73954 17.0317 5.13027 16.8412L8.8322 15.0352L12.5305 16.843C12.9229 17.0351 13.3827 16.9897 13.733 16.7277C14.085 16.4658 14.2703 16.0255 14.2181 15.5802L13.7146 11.327L16.5153 8.19018C16.8082 7.86365 16.9076 7.39737 16.7729 6.9729L16.7727 6.97275Z" fill="#DE192B"/>
</g>
</svg>
