<svg width="63" height="62" viewBox="0 0 63 62" fill="none" xmlns="http://www.w3.org/2000/svg">
<g id="Group 1296">
<g id="Group 929">
<path id="Vector" d="M38.7025 44.5498L31.3125 46.9198" stroke="#313131" stroke-width="1.1" stroke-miterlimit="10" stroke-linecap="round" stroke-linejoin="round"/>
<path id="Vector_2" d="M15.1984 20.0096L31.3284 25.1996V46.9196L15.1584 41.7396L15.1484 20.0096L31.3184 14.8096H31.3083L47.4884 20.0096L47.4784 38.5596" stroke="#313131" stroke-width="1.1" stroke-miterlimit="10" stroke-linecap="round" stroke-linejoin="round"/>
<path id="Vector_3" d="M47.4425 20.0098L31.3125 25.1998V46.9198" stroke="#313131" stroke-width="1.1" stroke-miterlimit="10" stroke-linecap="round" stroke-linejoin="round"/>
<path id="Vector_4" d="M43.5781 39.5098H57.5282C59.7382 39.5098 61.5282 41.2998 61.5282 43.5098V57.4598C61.5282 59.6698 59.7382 61.4598 57.5282 61.4598H43.5781C41.3681 61.4598 39.5781 59.6698 39.5781 57.4598V43.5098C39.5781 41.2998 41.3681 39.5098 43.5781 39.5098Z" stroke="#313131" stroke-width="1.1" stroke-miterlimit="10" stroke-linecap="round" stroke-linejoin="round"/>
<path id="Vector_5" d="M56.9617 45.8701L49.1517 54.8801L44.2617 50.1901" stroke="#313131" stroke-width="1.1" stroke-miterlimit="10" stroke-linecap="round" stroke-linejoin="round"/>
<path id="Vector_6" d="M39.13 54.37C38.19 55.08 37.44 56.06 37.02 57.27C35.11 62.79 27.3 62.79 25.39 57.27C24.18 53.79 20.2 52.14 16.89 53.75C11.63 56.3 6.11002 50.78 8.66002 45.52C10.27 42.2 8.62 38.22 5.14 37.02C-0.38 35.11 -0.38 27.3 5.14 25.39C8.62 24.18 10.27 20.2 8.66002 16.89C6.11002 11.63 11.63 6.11002 16.89 8.66002C20.21 10.27 24.19 8.62 25.39 5.14C27.3 -0.38 35.11 -0.38 37.02 5.14C38.23 8.62 42.21 10.27 45.52 8.66002C50.78 6.11002 56.3 11.63 53.75 16.89C52.14 20.21 53.79 24.19 57.27 25.39C62.79 27.3 62.79 35.11 57.27 37.02C56.01 37.46 54.99 38.26 54.28 39.26" stroke="#313131" stroke-width="1.1" stroke-miterlimit="10" stroke-linecap="round" stroke-linejoin="round"/>
</g>
</g>
</svg>
