<svg width="18" height="18" viewBox="0 0 18 18" fill="none" xmlns="http://www.w3.org/2000/svg">
<path d="M5.14286 4.5V3.375C5.14286 1.51102 6.83437 0 9 0C11.1295 0 12.8571 1.51102 12.8571 3.375V4.5H16.0714C17.1362 4.5 18 5.25586 18 6.1875V14.625C18 16.4883 16.2723 18 14.1429 18H3.85714C1.72688 18 0 16.4883 0 14.625V6.1875C0 5.25586 0.863438 4.5 1.92857 4.5H5.14286ZM6.42857 4.5H11.5714V3.375C11.5714 2.13223 10.4183 1.225 9 1.225C7.5817 1.225 6.42857 2.13223 6.42857 3.375V4.5ZM1.92857 5.625C1.57339 5.625 1.28571 5.87813 1.28571 6.1875V14.525C1.28571 15.766 2.43683 16.775 3.85714 16.775H14.1429C15.5612 16.775 16.7143 15.766 16.7143 14.525V6.1875C16.7143 5.87813 16.425 5.625 16.0714 5.625H12.8571V8.3375C12.8571 8.64687 12.5679 9 12.2143 9C11.8607 9 11.5714 8.64687 11.5714 8.3375V5.625H6.42857V8.3375C6.42857 8.64687 6.13929 9 5.78571 9C5.43214 9 5.14286 8.64687 5.14286 8.3375V5.625H1.92857Z" fill="#313131"/>
</svg>
