<svg width="27" height="28" viewBox="0 0 27 28" fill="none" xmlns="http://www.w3.org/2000/svg">
<g id="Basket">
<path id="Vector" d="M6.13281 12.6631H8.72694" stroke="white" stroke-width="1.8" stroke-miterlimit="10" stroke-linecap="round"/>
<path id="Vector_2" d="M17.8594 12.6631H20.4431" stroke="white" stroke-width="1.8" stroke-miterlimit="10" stroke-linecap="round"/>
<path id="Vector_3" d="M25.5032 22.1474L24.0297 11.086C23.8325 9.99651 23.3552 9.01074 21.9544 9.01074H16.3096H10.2289H4.58414C3.18331 9.01074 2.70599 9.99651 2.50884 11.086L1.03538 22.1474C0.692954 25.3434 2.89277 26.298 5.18598 26.298H10.2186H16.2992H21.3318C23.6458 26.298 25.8456 25.3434 25.5032 22.1474Z" stroke="white" stroke-width="1.8" stroke-miterlimit="10" stroke-linecap="round"/>
<path id="Vector_4" d="M19.1391 13.1611C19.1495 13.296 19.1703 13.4309 19.1703 13.5762C19.1703 16.8552 16.5139 19.5012 13.2453 19.5012C9.96631 19.5012 7.32031 16.8448 7.32031 13.5762C7.32031 13.4413 7.34106 13.3064 7.35144 13.1611" stroke="white" stroke-width="1.8" stroke-miterlimit="10" stroke-linecap="round"/>
<path id="Vector_5" d="M21.7997 9.01987L21.9242 7.05872C21.9761 6.63329 21.6648 6.24934 21.2394 6.19746L12.2118 5.21171C11.7864 5.15983 11.4025 5.47112 11.3506 5.89656L11.1016 8.91613L21.7997 9.01987Z" stroke="white" stroke-width="1.8" stroke-miterlimit="10" stroke-linecap="round"/>
<path id="Vector_6" d="M12.2112 5.2128L16.2477 5.65898L15.6666 2.44226C15.594 2.01682 15.1893 1.73667 14.7638 1.80931L4.57411 3.61481C4.14867 3.68744 3.86851 4.09212 3.94114 4.51756L4.74014 8.91721H11.0905L11.3396 5.89765C11.4018 5.48259 11.7858 5.17129 12.2112 5.2128Z" stroke="white" stroke-width="1.8" stroke-miterlimit="10" stroke-linecap="round"/>
</g>
</svg>
