<svg width="24" height="25" viewBox="0 0 24 25" fill="none" xmlns="http://www.w3.org/2000/svg">
<g id="Group 1282">
<path id="Vector" d="M20.0444 8.2516L20.1644 6.36162C20.2144 5.95162 19.9144 5.5816 19.5044 5.5316L10.8044 4.58162C10.3944 4.53162 10.0244 4.83162 9.97438 5.24162L9.73438 8.1516L20.0444 8.2516Z" stroke="#BE1E2D" stroke-width="1.38" stroke-miterlimit="10" stroke-linecap="round"/>
<path id="Vector_2" d="M10.817 4.59182L14.707 5.02184L14.147 1.92183C14.077 1.51183 13.687 1.24182 13.277 1.31182L3.45698 3.05184C3.04698 3.12184 2.77698 3.51183 2.84698 3.92183L3.61698 8.16182H9.73697L9.97698 5.25182C10.027 4.84182 10.397 4.55182 10.817 4.59182Z" stroke="#BE1E2D" stroke-width="1.38" stroke-miterlimit="10" stroke-linecap="round"/>
<path id="Vector_3" d="M23.6141 20.9022L22.1941 10.2422C22.0041 9.19219 21.5441 8.24219 20.1941 8.24219H14.7541H8.8941H3.45409C2.10409 8.24219 1.64409 9.19219 1.45409 10.2422L0.0340952 20.9022C-0.295905 23.9822 1.8241 24.9022 4.0341 24.9022H8.8841H14.7441H19.5941C21.8241 24.9022 23.9541 23.9822 23.6141 20.9022ZM18.7341 12.4622H18.1841C18.1841 12.5222 18.1941 12.5922 18.1941 12.6522C18.1941 16.1822 15.3241 19.0522 11.7941 19.0522C8.26409 19.0522 5.3941 16.1822 5.3941 12.6522C5.3941 12.5922 5.40409 12.5222 5.40409 12.4622H4.9441C4.5641 12.4622 4.2541 12.1522 4.2541 11.7722C4.2541 11.3922 4.5641 11.0822 4.9441 11.0822H7.4441C7.8241 11.0822 8.1341 11.3922 8.1341 11.7722C8.1341 12.1522 7.8241 12.4622 7.4441 12.4622H6.7841C6.7741 12.5222 6.7741 12.5922 6.7741 12.6522C6.7741 15.4222 9.02409 17.6722 11.7941 17.6722C14.5641 17.6722 16.8141 15.4222 16.8141 12.6522C16.8141 12.5922 16.8041 12.5222 16.8041 12.4622H16.2341C15.8541 12.4622 15.5441 12.1522 15.5441 11.7722C15.5441 11.3922 15.8541 11.0822 16.2341 11.0822H18.7341C19.1141 11.0822 19.4241 11.3922 19.4241 11.7722C19.4241 12.1522 19.1241 12.4622 18.7341 12.4622Z" fill="#BE1E2D"/>
</g>
</svg>
