<svg width="26" height="26" viewBox="0 0 26 26" fill="none" xmlns="http://www.w3.org/2000/svg">
<g id="Group 1281">
<path id="Vector" d="M5.94531 11.7715H8.44531" stroke="#BE1E2D" stroke-width="1.38" stroke-miterlimit="10" stroke-linecap="round"/>
<path id="Vector_2" d="M17.2461 11.7715H19.7361" stroke="#BE1E2D" stroke-width="1.38" stroke-miterlimit="10" stroke-linecap="round"/>
<path id="Vector_3" d="M24.6141 20.9022L23.1941 10.2422C23.0041 9.19219 22.5441 8.24219 21.1941 8.24219H15.7541H9.89408H4.45409C3.10409 8.24219 2.64409 9.19219 2.45409 10.2422L1.0341 20.9022C0.704095 23.9822 2.8241 24.9022 5.0341 24.9022H9.88409H15.7441H20.5941C22.8241 24.9022 24.9441 23.9822 24.6141 20.9022Z" stroke="#BE1E2D" stroke-width="1.38" stroke-miterlimit="10" stroke-linecap="round"/>
<path id="Vector_4" d="M18.4837 12.252C18.4937 12.382 18.5137 12.5119 18.5137 12.6519C18.5137 15.8119 15.9537 18.362 12.8037 18.362C9.64374 18.362 7.09375 15.8019 7.09375 12.6519C7.09375 12.5219 7.11375 12.392 7.12375 12.252" stroke="#BE1E2D" stroke-width="1.38" stroke-miterlimit="10" stroke-linecap="round"/>
<path id="Vector_5" d="M21.0444 8.2516L21.1644 6.36162C21.2144 5.95162 20.9144 5.5816 20.5044 5.5316L11.8044 4.58162C11.3944 4.53162 11.0244 4.83162 10.9744 5.24162L10.7344 8.1516L21.0444 8.2516Z" stroke="#BE1E2D" stroke-width="1.38" stroke-miterlimit="10" stroke-linecap="round"/>
<path id="Vector_6" d="M11.8053 4.59182L15.6953 5.02184L15.1353 1.92183C15.0653 1.51183 14.6753 1.24182 14.2653 1.31182L4.44526 3.05184C4.03526 3.12184 3.76526 3.51183 3.83526 3.92183L4.60526 8.16182H10.7253L10.9653 5.25182C11.0253 4.84182 11.3953 4.55182 11.8053 4.59182Z" stroke="#BE1E2D" stroke-width="1.38" stroke-miterlimit="10" stroke-linecap="round"/>
</g>
</svg>
