<svg width="18" height="18" viewBox="0 0 18 18" fill="none" xmlns="http://www.w3.org/2000/svg">
<g id="circle-star-light 2" clip-path="url(#clip0_405_10271)">
<path id="Vector" d="M10.7789 6.55312L13.6266 6.96445C13.841 6.99609 14.0168 7.14375 14.0836 7.34766C14.1469 7.55156 14.0941 7.77656 13.9395 7.92422L11.8793 9.93516L12.3645 12.7723C12.3996 12.9832 12.3152 13.1977 12.1395 13.2926C11.9672 13.4508 11.7387 13.4648 11.5488 13.3664L9 12.027L6.45117 13.3664C6.26133 13.4648 6.03281 13.4508 5.86055 13.2926C5.68477 13.1977 5.60039 12.9832 5.63555 12.7723L6.1207 9.93516L4.06055 7.92422C3.90586 7.77656 3.85312 7.55156 3.91641 7.34766C3.9832 7.14375 4.15898 6.99609 4.37344 6.96445L7.22109 6.55312L8.49727 3.96914C8.58867 3.7793 8.78555 3.65625 9 3.65625C9.21445 3.65625 9.41133 3.7793 9.50273 3.96914L10.7789 6.55312ZM7.67461 7.62187L5.66016 7.91367L7.11914 9.3375C7.25273 9.46406 7.28086 9.65039 7.28086 9.8332L6.93633 11.8406L8.73984 10.8914C8.90156 10.807 9.09844 10.807 9.26016 10.8914L11.0637 11.8406L10.7191 9.8332C10.6875 9.65039 10.7473 9.46406 10.8809 9.3375L12.3082 7.91367L10.3254 7.62187C10.1426 7.59727 9.95273 7.48125 9.9 7.31602L8.96836 5.49141L8.1 7.31602C8.01562 7.48125 7.85742 7.59727 7.67461 7.62187ZM18 9C18 13.9711 13.9711 18 9 18C4.02891 18 0 13.9711 0 9C0 4.02891 4.02891 0 9 0C13.9711 0 18 4.02891 18 9ZM9 1.125C4.65117 1.125 1.125 4.65117 1.125 9C1.125 13.3488 4.65117 16.875 9 16.875C13.3488 16.875 16.875 13.3488 16.875 9C16.875 4.65117 13.3488 1.125 9 1.125Z" fill="#C2C2C2"/>
</g>
<defs>
<clipPath id="clip0_405_10271">
<rect width="18" height="18" fill="white"/>
</clipPath>
</defs>
</svg>
