<svg width="18" height="18" viewBox="0 0 18 18" fill="none" xmlns="http://www.w3.org/2000/svg">
<g id="Group 1299">
<path id="Vector" d="M0.13881 6.53259L0.0972401 6.57491L0.0741459 6.60164C0.0621875 6.618 0.0513856 6.63512 0.0418137 6.65288L0.0256477 6.68184C0.0163558 6.70205 0.00863628 6.72289 0.00255321 6.74421C0.00255321 6.74421 0.00255321 6.7598 0.00255321 6.76871C-0.00085107 6.79981 -0.00085107 6.83117 0.00255321 6.86227V16.218C0.00255321 16.6906 0.197205 17.1439 0.543688 17.4781C0.890171 17.8123 1.3601 18 1.8501 18H16.1501C16.6401 18 17.1101 17.8123 17.4566 17.4781C17.803 17.1439 17.9977 16.6906 17.9977 16.218V6.86227C18.0008 6.83264 18.0008 6.80279 17.9977 6.77317C17.9977 6.77317 17.9977 6.75757 17.9977 6.74866C17.9916 6.72735 17.9839 6.7065 17.9746 6.68629L17.9584 6.65733C17.9489 6.63957 17.9381 6.62246 17.9261 6.6061L17.903 6.57937L17.8614 6.53705L17.8476 6.52368L15.5543 4.69487V2.04186C15.5543 1.9237 15.5056 1.81038 15.419 1.72684C15.3324 1.64329 15.2149 1.59635 15.0924 1.59635H11.6583L10.1687 0.409066C9.83741 0.144665 9.42088 0 8.99088 0C8.56089 0 8.14436 0.144665 7.81307 0.409066L6.32348 1.59635H2.90782C2.78532 1.59635 2.66784 1.64329 2.58122 1.72684C2.4946 1.81038 2.44594 1.9237 2.44594 2.04186V4.69041L0.152667 6.51923L0.13881 6.53259ZM16.1501 17.109H1.83163C1.58663 17.109 1.35166 17.0151 1.17842 16.848C1.00518 16.6809 0.907852 16.4543 0.907852 16.218V7.80898L7.81307 13.3155C8.14419 13.5793 8.56025 13.7236 8.98973 13.7236C9.41921 13.7236 9.83527 13.5793 10.1664 13.3155L17.0739 7.80898V16.218C17.0739 16.4543 16.9766 16.6809 16.8033 16.848C16.6301 17.0151 16.3951 17.109 16.1501 17.109ZM16.8106 6.86227L15.5358 7.88694V5.84651L16.8106 6.86227ZM8.40198 1.09515C8.56762 0.96295 8.77588 0.890617 8.99088 0.890617C9.20588 0.890617 9.41414 0.96295 9.57979 1.09515L10.208 1.59635H7.77381L8.40198 1.09515ZM14.6121 2.48737V8.61535L9.57979 12.6249C9.41414 12.7571 9.20588 12.8295 8.99088 12.8295C8.77588 12.8295 8.56762 12.7571 8.40198 12.6249L3.36971 8.61535V2.48737H14.6121ZM2.44594 5.84651V7.88694L1.17113 6.86227L2.44594 5.84651Z" fill="#313131"/>
<path id="Vector_2" d="M6.4898 6H11.5102C11.6401 6 11.7647 5.94732 11.8565 5.85355C11.9484 5.75978 12 5.63261 12 5.5C12 5.36739 11.9484 5.24021 11.8565 5.14645C11.7647 5.05268 11.6401 5 11.5102 5H6.4898C6.35989 5 6.23531 5.05268 6.14346 5.14645C6.0516 5.24021 6 5.36739 6 5.5C6 5.63261 6.0516 5.75978 6.14346 5.85355C6.23531 5.94732 6.35989 6 6.4898 6Z" fill="#313131"/>
<path id="Vector_3" d="M6.4898 9H11.5102C11.6401 9 11.7647 8.94732 11.8565 8.85355C11.9484 8.75978 12 8.63261 12 8.5C12 8.36739 11.9484 8.24021 11.8565 8.14645C11.7647 8.05268 11.6401 8 11.5102 8H6.4898C6.35989 8 6.23531 8.05268 6.14346 8.14645C6.0516 8.24021 6 8.36739 6 8.5C6 8.63261 6.0516 8.75978 6.14346 8.85355C6.23531 8.94732 6.35989 9 6.4898 9Z" fill="#313131"/>
</g>
</svg>
