<svg width="26" height="24" viewBox="0 0 26 24" fill="none" xmlns="http://www.w3.org/2000/svg">
<path d="M24.3988 6.14148C23.3588 2.57148 19.9589 0.851451 17.3389 1.02145C16.0089 1.11145 14.9488 1.52148 14.0188 2.11148C13.7088 2.31148 13.4289 2.56145 13.1189 2.77145C12.8389 2.96145 12.7588 2.97146 12.5088 2.78146C12.1988 2.53146 11.8788 2.29147 11.5488 2.07147C10.6388 1.49147 9.58882 1.10147 8.28882 1.01147C5.66882 0.841472 2.26889 2.56147 1.22889 6.13147C0.908888 7.21147 0.938888 8.52147 1.22889 10.0715C1.22889 10.0715 1.46886 11.9115 3.69886 14.5915C5.22886 16.4315 8.15885 19.2015 10.3189 21.0415L12.0488 22.5815C12.0488 22.5815 12.9088 23.2515 13.7588 22.4315V22.4215L15.3189 21.0415C17.4789 19.2015 20.4088 16.4315 21.9388 14.5915C22.0388 14.4615 22.1389 14.3415 22.2389 14.2215L22.5588 13.8115C24.2188 11.5615 24.4088 10.0715 24.4088 10.0715C24.6888 8.53147 24.7088 7.22148 24.3988 6.14148Z" stroke="#BE1E2D" stroke-width="1.38" stroke-miterlimit="10" stroke-linecap="round"/>
<path d="M24.3988 6.14148C23.3588 2.57148 19.9589 0.851451 17.3389 1.02145C16.0089 1.11145 14.9488 1.52148 14.0188 2.11148C13.7088 2.31148 13.4289 2.56145 13.1189 2.77145C12.8389 2.96145 12.7588 2.97146 12.5088 2.78146C12.1988 2.53146 11.8788 2.29147 11.5488 2.07147C10.6388 1.49147 9.58882 1.10147 8.28882 1.01147C5.66882 0.841472 2.26889 2.56147 1.22889 6.13147C0.908888 7.21147 0.938888 8.52147 1.22889 10.0715C1.22889 10.0715 1.46886 11.9115 3.69886 14.5915C5.22886 16.4315 8.15885 19.2015 10.3189 21.0415L12.0488 22.5815C12.0488 22.5815 12.9088 23.2515 13.7588 22.4315V22.4215L15.3189 21.0415C17.4789 19.2015 20.4088 16.4315 21.9388 14.5915C22.0388 14.4615 22.1389 14.3415 22.2389 14.2215L22.5588 13.8115C24.2188 11.5615 24.4088 10.0715 24.4088 10.0715C24.6888 8.53147 24.7088 7.22148 24.3988 6.14148ZM5.1388 12.6115C4.7388 12.6115 4.40882 12.2915 4.40882 11.8815C4.40882 11.4715 4.7288 11.1515 5.1388 11.1515C5.5488 11.1515 5.8689 11.4715 5.8689 11.8815C5.8689 12.2915 5.5388 12.6115 5.1388 12.6115ZM7.62879 4.95147C7.58879 4.96147 6.04887 5.21148 5.20887 6.42148C4.63887 7.25148 4.49883 8.37146 4.79883 9.75146C4.87883 10.1215 4.64881 10.4915 4.26881 10.5715C4.21881 10.5815 4.1689 10.5915 4.1189 10.5915C3.7989 10.5915 3.51886 10.3715 3.44886 10.0515C3.05886 8.27148 3.26886 6.79147 4.07886 5.63147C5.27886 3.91147 7.33884 3.61146 7.42884 3.59146C7.80884 3.54146 8.15887 3.80146 8.20887 4.18145C8.26887 4.55146 8.00879 4.90147 7.62879 4.95147Z" fill="#BE1E2D"/>
</svg>
