<svg width="26" height="26" viewBox="0 0 26 26" fill="none" xmlns="http://www.w3.org/2000/svg">
<path d="M22.2919 12.6904V22.4904C22.2919 23.6704 21.3319 24.6304 20.1519 24.6304H5.56189C4.38189 24.6304 3.42188 23.6704 3.42188 22.4904V12.7804" stroke="#BE1E2D" stroke-width="1.38" stroke-miterlimit="10"/>
<path d="M12.5815 15.1904H13.1416C14.5116 15.1904 15.6216 16.3004 15.6216 17.6704V24.6404H10.1016V17.6704C10.1016 16.3004 11.2115 15.1904 12.5815 15.1904Z" stroke="#BE1E2D" stroke-width="1.38" stroke-miterlimit="10"/>
<path d="M12.5815 15.1904H13.1416C14.5116 15.1904 15.6216 16.3004 15.6216 17.6704V24.6404H10.1016V17.6704C10.1016 16.3004 11.2115 15.1904 12.5815 15.1904Z" stroke="#BE1E2D" stroke-width="1.38" stroke-miterlimit="10"/>
<path d="M23.9521 9.27008L15.2121 2.0001C14.6821 1.5901 13.8321 1.0001 12.8421 1.0001C11.7621 0.990095 10.7322 1.77009 10.3922 2.06009L1.71213 9.27008C0.872129 9.97008 0.762119 11.2101 1.45212 12.0501C2.15212 12.8901 3.39215 13.0001 4.23215 12.3101C4.30215 12.2501 10.2922 7.2701 10.3622 7.2201C10.3722 7.2101 11.5922 6.02007 12.7722 6.04007C13.9122 6.06007 14.4322 6.51008 15.2422 7.17008C17.3022 8.88008 19.3622 10.5901 21.4222 12.3101C22.2622 13.0101 23.5021 12.8901 24.2021 12.0501C24.9121 11.2101 24.7921 9.96008 23.9521 9.27008Z" stroke="#BE1E2D" stroke-width="1.38" stroke-miterlimit="10"/>
</svg>
