<svg width="18" height="19" viewBox="0 0 18 19" fill="none" xmlns="http://www.w3.org/2000/svg">
<g id="Group 1243">
<path id="Vector" d="M11.407 6.075C11.407 7.47352 10.2743 8.60625 8.87578 8.60625C7.47727 8.60625 6.34453 7.47352 6.34453 6.075C6.34453 4.67648 7.47727 3.54375 8.87578 3.54375C10.2743 3.54375 11.407 4.67648 11.407 6.075ZM8.87578 7.59375C9.71426 7.59375 10.3945 6.91348 10.3945 6.075C10.3945 5.23652 9.71426 4.55625 8.87578 4.55625C8.0373 4.55625 7.35703 5.23652 7.35703 6.075C7.35703 6.91348 8.0373 7.59375 8.87578 7.59375ZM14.9508 6.075C14.9508 8.84039 11.2488 13.7637 9.62566 15.795C9.23648 16.2791 8.51508 16.2791 8.1259 15.795C6.47426 13.7637 2.80078 8.84039 2.80078 6.075C2.80078 2.71983 5.52061 0 8.87578 0C12.2297 0 14.9508 2.71983 14.9508 6.075ZM8.87578 1.0125C6.07875 1.0125 3.81328 3.27797 3.81328 6.075C3.81328 6.56859 3.98509 7.2457 4.33725 8.08102C4.68245 8.90051 5.1675 9.78961 5.71615 10.6787C6.79383 12.4284 8.07211 14.1022 8.87578 15.1116C9.67945 14.1022 10.9577 12.4284 12.0367 10.6787C12.5841 9.78961 13.0682 8.90051 13.413 8.08102C13.7674 7.2457 13.9383 6.56859 13.9383 6.075C13.9383 3.27797 11.6728 1.0125 8.87578 1.0125Z" fill="#313131"/>
<path id="Subtract" fill-rule="evenodd" clip-rule="evenodd" d="M6.69532 13.2104C5.27441 13.3497 4.02973 13.6125 3.06549 13.95C2.33078 14.2071 1.82887 14.4835 1.53605 14.7258C1.40908 14.8308 1.34722 14.9063 1.31814 14.9503C1.34722 14.9944 1.40908 15.0698 1.53605 15.1749C1.82887 15.4172 2.33078 15.6936 3.06549 15.9507C4.52292 16.4608 6.62103 16.8003 9 16.8003C11.379 16.8003 13.4771 16.4608 14.9345 15.9507C15.6692 15.6936 16.1711 15.4172 16.464 15.1749C16.5909 15.0699 16.6528 14.9944 16.6819 14.9503C16.6528 14.9063 16.5909 14.8308 16.464 14.7258C16.1711 14.4835 15.6692 14.2071 14.9345 13.95C13.9264 13.5971 12.6117 13.3259 11.1096 13.1922L12.0655 11.9878C15.5268 12.4266 18 13.5874 18 14.9503C18 16.69 13.9706 18.1003 9 18.1003C4.02944 18.1003 0 16.69 0 14.9503C0 13.6237 2.34311 12.4886 5.65989 12.0244L6.69532 13.2104ZM16.7059 14.9045C16.7061 14.9045 16.7056 14.9067 16.7037 14.9111C16.7048 14.9066 16.7057 14.9044 16.7059 14.9045ZM1.29412 14.9045C1.29431 14.9044 1.29521 14.9067 1.29626 14.9111C1.29445 14.9067 1.29392 14.9045 1.29412 14.9045ZM1.29412 14.9962C1.29392 14.9962 1.29445 14.994 1.29626 14.9896C1.29521 14.994 1.29431 14.9962 1.29412 14.9962ZM16.7037 14.9896C16.7056 14.994 16.7061 14.9962 16.7059 14.9962C16.7057 14.9962 16.7048 14.9941 16.7037 14.9896Z" fill="#313131"/>
</g>
</svg>
