<svg width="170" height="63" viewBox="0 0 170 63" fill="none" xmlns="http://www.w3.org/2000/svg">
<g id="Group 1322">
<path id="Vector" d="M119.34 45.1401L114.599 57.4941L109.32 45.1401H108.781L114.293 58.0537L113.332 60.4612C113.213 60.7936 113.046 61.1067 112.836 61.3904C112.667 61.602 112.454 61.7749 112.213 61.8972C111.953 62.0134 111.674 62.0813 111.389 62.0978C111.073 62.0978 110.692 62.0978 110.249 62.0978V62.6047C110.64 62.6047 111.009 62.6047 111.368 62.6047C111.698 62.5867 112.022 62.5154 112.329 62.3935C112.63 62.264 112.902 62.0775 113.132 61.8444C113.407 61.5389 113.616 61.1793 113.744 60.7885L119.847 45.1084L119.34 45.1401Z" fill="#DE192B" stroke="#DE1F2C" stroke-width="0.5" stroke-miterlimit="10"/>
<path id="Vector_2" d="M63.238 49.9125C62.8416 49.5341 62.3754 49.2364 61.8653 49.0361C61.3351 48.8329 60.7749 48.7187 60.2075 48.6982C60.7316 48.6686 61.2447 48.5358 61.7175 48.3075C62.1618 48.09 62.5626 47.793 62.9001 47.4311C63.2319 47.0572 63.4963 46.6285 63.6814 46.1641C63.8797 45.6818 63.9801 45.165 63.9771 44.6436C63.9899 43.9786 63.8566 43.319 63.5864 42.7113C63.3478 42.1737 62.9861 41.6999 62.5305 41.328C62.0602 40.9149 61.5104 40.6023 60.915 40.4094C60.277 40.2237 59.6155 40.1313 58.951 40.1349H51.2852V57.8846H58.6765C59.4724 57.8917 60.2653 57.785 61.0311 57.5678C61.7081 57.3919 62.3434 57.0832 62.9001 56.6597C63.4146 56.2625 63.8272 55.7485 64.1038 55.1603C64.4123 54.5 64.5641 53.7772 64.5473 53.0485C64.5572 52.4222 64.4386 51.8005 64.1988 51.2218C63.9662 50.7273 63.6399 50.2827 63.238 49.9125ZM51.7814 40.6628H58.951C59.5508 40.6594 60.1481 40.7412 60.7249 40.9057C61.2473 41.0453 61.7358 41.2896 62.1609 41.6237C62.5706 41.9489 62.8995 42.3645 63.1218 42.838C63.3721 43.4023 63.4912 44.016 63.4703 44.633C63.4857 45.211 63.3588 45.7839 63.1007 46.3013C62.8412 46.7751 62.4807 47.1861 62.0448 47.5051C61.6183 47.837 61.1302 48.081 60.6088 48.2231C60.0532 48.3857 59.4771 48.4675 58.8982 48.4659H51.7814V40.6628ZM63.6286 55.0125C63.3804 55.5322 63.0197 55.9903 62.5727 56.3535C62.0868 56.7222 61.5349 56.9946 60.9466 57.156C60.2816 57.3305 59.5963 57.4157 58.9088 57.4094H51.7814V48.9622H58.951C59.5771 48.9611 60.2011 49.0355 60.8094 49.1839C61.4066 49.319 61.9727 49.5662 62.4777 49.9125C62.9559 50.247 63.3499 50.688 63.6286 51.2007C63.9364 51.8083 64.0854 52.484 64.0616 53.1647C64.0593 53.8055 63.9112 54.4374 63.6286 55.0125Z" fill="#DE192B" stroke="#DE1F2C" stroke-width="0.5" stroke-miterlimit="10"/>
<path id="Vector_3" d="M76.0251 46.9238C75.5596 46.2891 74.9521 45.772 74.2512 45.4139C73.4519 45.016 72.5673 44.8202 71.6748 44.8437C70.9478 44.8445 70.2289 44.9955 69.563 45.2872C68.8748 45.5849 68.2616 46.0321 67.768 46.5965C67.2208 47.2157 66.7946 47.932 66.5114 48.7083C66.181 49.6181 66.02 50.5808 66.0363 51.5487C66.0337 52.4389 66.1437 53.3258 66.3636 54.1884C66.5768 54.9536 66.9353 55.6706 67.4195 56.3002C67.8707 56.9053 68.466 57.388 69.1512 57.7046C69.9599 58.053 70.8375 58.2119 71.717 58.1692C73.0554 58.2135 74.3657 57.7793 75.4127 56.9443C76.4348 56.0668 77.0718 54.8232 77.1866 53.481H76.6798C76.5585 54.7118 75.9641 55.8474 75.022 56.6487C74.0565 57.3744 72.8713 57.747 71.6642 57.7046C70.8635 57.7293 70.068 57.5666 69.3412 57.2294C68.7292 56.9289 68.1972 56.4874 67.7891 55.9412C67.3729 55.3596 67.0718 54.7037 66.9021 54.0089C66.704 53.2252 66.6012 52.4204 66.5959 51.612H77.2605C77.2964 50.7589 77.2075 49.9052 76.9965 49.0778C76.8121 48.3048 76.4825 47.5738 76.0251 46.9238ZM66.522 51.1474C66.5559 50.3233 66.7235 49.5103 67.0183 48.74C67.2601 48.0737 67.6176 47.4554 68.0742 46.9133C68.5212 46.4143 69.0703 46.0174 69.6843 45.7496C70.2983 45.4818 70.9628 45.3493 71.6326 45.3611C72.393 45.3435 73.1476 45.4987 73.8394 45.8151C74.4519 46.1146 74.9922 46.5433 75.4232 47.0716C75.8545 47.6232 76.1802 48.2497 76.3841 48.9195C76.5978 49.6427 76.7045 50.3933 76.7009 51.1474H66.522Z" fill="#DE192B" stroke="#DE1F2C" stroke-width="0.5" stroke-miterlimit="10"/>
<path id="Vector_4" d="M89.2332 57.3992C89.0788 57.3647 88.9387 57.2837 88.8319 57.1669C88.7215 57.0061 88.6693 56.8123 88.6841 56.6178V48.4979C88.6862 47.8975 88.5602 47.3036 88.3145 46.7557C88.0937 46.314 87.7761 45.9278 87.3853 45.6259C86.9925 45.326 86.5382 45.1169 86.0549 45.0135C85.5244 44.8971 84.9825 44.8404 84.4394 44.8445C83.7225 44.8276 83.008 44.9347 82.3276 45.1613C81.776 45.3572 81.2696 45.6625 80.8388 46.0588C80.4295 46.4344 80.1086 46.8959 79.899 47.4104C79.6813 47.9454 79.5529 48.5126 79.5189 49.0892H80.0257C80.0354 48.5678 80.1509 48.0538 80.365 47.5782C80.5792 47.1027 80.8876 46.6756 81.2717 46.3228C82.1699 45.6151 83.2984 45.2653 84.4394 45.3408C85.1314 45.3101 85.8221 45.4252 86.4667 45.6787C86.9119 45.8596 87.3016 46.1546 87.5965 46.534C87.8523 46.8669 88.0194 47.2592 88.0822 47.6743C88.1527 48.0681 88.188 48.4674 88.1878 48.8675C88.2002 49.24 88.1009 49.6077 87.9027 49.9234C87.6661 50.2026 87.3489 50.4017 86.9947 50.4936C86.4881 50.633 85.9674 50.7144 85.4425 50.7364C84.809 50.7364 84.0487 50.8315 83.1617 50.8737C82.6261 50.9077 82.0934 50.9783 81.5673 51.0849C81.0595 51.1801 80.5753 51.3738 80.1419 51.6551C79.702 51.9387 79.3392 52.3268 79.086 52.7849C78.8073 53.3858 78.677 54.0449 78.7059 54.7066C78.6729 55.198 78.7628 55.6898 78.9675 56.1377C79.1721 56.5857 79.485 56.9756 79.8779 57.2725C80.8137 57.8923 81.925 58.1923 83.0456 58.1277C83.6706 58.1331 84.293 58.0477 84.8934 57.8743C85.4271 57.7096 85.9353 57.4715 86.4034 57.1669C86.8051 56.8685 87.1609 56.5127 87.4593 56.111C87.7331 55.7498 87.947 55.3469 88.0928 54.9178V56.5861C88.0683 56.7716 88.0935 56.9603 88.1659 57.1328C88.2382 57.3054 88.3551 57.4556 88.5046 57.5681C88.7936 57.745 89.1267 57.8365 89.4655 57.8321H90.2152V57.3253H89.6767C89.5325 57.3684 89.3835 57.3932 89.2332 57.3992ZM88.1773 52.7638C88.176 53.395 88.0616 54.0208 87.8394 54.6116C87.6031 55.205 87.2432 55.7414 86.7835 56.1849C86.311 56.6389 85.7553 56.9975 85.1468 57.2408C84.444 57.5304 83.6896 57.6741 82.9295 57.6631C82.331 57.6758 81.7347 57.5865 81.1661 57.3992C80.7371 57.255 80.3419 57.0251 80.0046 56.7234C79.7167 56.4694 79.4986 56.1458 79.3711 55.7836C79.2481 55.445 79.1839 55.088 79.181 54.7277C79.1554 54.1569 79.2677 53.5883 79.5083 53.07C79.7061 52.6664 80.0088 52.3236 80.3847 52.0774C80.7663 51.8299 81.1935 51.6611 81.6413 51.5812C82.1222 51.4854 82.609 51.4219 83.0984 51.3911L84.64 51.3172C85.1281 51.3097 85.6151 51.2673 86.0972 51.1905C86.5072 51.1376 86.9107 51.0421 87.3009 50.9054C87.6072 50.8153 87.877 50.6305 88.0717 50.3774L88.1773 52.7638Z" fill="#DE192B" stroke="#DE1F2C" stroke-width="0.5" stroke-miterlimit="10"/>
<path id="Vector_5" d="M100.92 52.3726C100.92 53.0626 100.82 53.7489 100.625 54.4105C100.439 55.0281 100.138 55.6049 99.7376 56.1105C99.3208 56.6297 98.7891 57.0449 98.1844 57.3234C97.5797 57.6019 96.9186 57.7361 96.2532 57.7155C95.7227 57.7172 95.1953 57.6352 94.6904 57.4726C94.2086 57.3243 93.7652 57.072 93.3917 56.7335C92.9983 56.3761 92.6945 55.9312 92.5047 55.4347C92.2688 54.8297 92.1575 54.1832 92.1774 53.5341V45.0869H91.6811V53.5341C91.6653 54.2114 91.7801 54.8853 92.019 55.5192C92.2244 56.0629 92.5491 56.5537 92.9693 56.9552C93.3802 57.3491 93.8747 57.645 94.4159 57.8211C95.0085 58.0164 95.6292 58.1127 96.2532 58.1062C97.3617 58.1566 98.4528 57.8165 99.3364 57.1453C100.11 56.5214 100.649 55.6544 100.867 54.685V57.8527H101.364V45.1397H100.867L100.92 52.3726Z" fill="#DE192B" stroke="#DE1F2C" stroke-width="0.5" stroke-miterlimit="10"/>
<path id="Vector_6" d="M105.769 41.1172H105.273V45.1402H102.918V45.6892H105.273V55.583C105.232 55.9204 105.265 56.2626 105.371 56.5855C105.477 56.9084 105.652 57.2042 105.885 57.452C106.299 57.7977 106.824 57.9815 107.363 57.9694C107.627 57.9856 107.892 57.9856 108.155 57.9694H108.588V57.3041C108.453 57.3538 108.309 57.3754 108.166 57.3675H107.49C107.29 57.378 107.089 57.378 106.888 57.3675C106.687 57.3444 106.496 57.2638 106.339 57.1352C106.159 56.9672 106.019 56.7617 105.927 56.5333C105.806 56.1731 105.753 55.7937 105.769 55.4141V45.6892H108.662V45.193H105.769V41.1172Z" fill="#DE192B" stroke="#DE1F2C" stroke-width="0.5" stroke-miterlimit="10"/>
<path id="Vector_7" d="M28.3615 0.147461H23.7683C24.064 3.73048 24.2118 7.82386 24.2118 12.4276V14.3071C21.9874 14.3071 18.6683 14.3071 14.2547 14.3071C9.84099 14.3071 6.50434 14.3071 4.24472 14.3071V12.4276C4.24472 5.81765 4.33975 1.73131 4.54037 0.147461H0.042233C0.267492 3.33628 0.380121 8.41165 0.380121 15.3736C0.380121 23.335 0.253416 29.2622 0 33.1549C0.665217 33.1549 1.36211 33.1549 2.17515 33.1549C2.9882 33.1549 3.78012 33.1549 4.48758 33.1549C4.33271 31.4444 4.25176 26.6154 4.24472 18.668V16.3872C7.60248 16.2922 10.9286 16.2394 14.2547 16.2394C17.5807 16.2394 20.8857 16.2394 24.2118 16.3872V18.668C24.2118 24.2572 24.0816 29.0862 23.8211 33.1549C24.5075 33.1549 25.2149 33.1549 26.0491 33.1549C26.8832 33.1549 27.7279 33.1549 28.4143 33.1549C28.1538 26.2916 28.0236 20.3644 28.0236 15.3736C28.0236 9.82655 28.1362 4.75119 28.3615 0.147461Z" fill="#DE192B"/>
<path id="Vector_8" d="M41.0131 16.6727V9.61932C41.0131 5.43795 41.0764 2.27025 41.2032 0.116211H36.7578C36.9549 3.05161 37.0535 8.55989 37.0535 16.6411V20.6535C37.0535 25.9471 36.9549 30.1038 36.7578 33.1237C37.6342 33.1237 38.3945 33.1237 39.0386 33.1237C39.6827 33.1237 40.3479 33.1237 41.1504 33.1237C41.0237 31.1878 40.9603 28.3721 40.9603 24.6765V16.6727H41.0131Z" fill="#DE192B"/>
<path id="Vector_9" d="M54.03 30.9062C53.8118 25.2747 53.7027 20.7484 53.7027 17.3273C53.7027 13.9062 53.8611 8.18675 54.1778 0.168945H49.6797C49.9049 6.26501 50.0176 11.7733 50.0176 16.6938C50.0176 21.1145 49.9049 26.6087 49.6797 33.1764C51.6225 33.1764 53.7027 33.1764 55.9517 33.1764H67.0809V30.1565C63.8475 30.7594 60.5597 31.0212 57.2716 30.9379C55.73 30.9062 54.6424 30.9062 54.03 30.9062Z" fill="#DE192B"/>
<path id="Vector_10" d="M91.9471 12.8077C90.1731 8.66852 88.4309 4.48715 86.7309 0.200195H85.8123C83.7005 5.20516 77.6502 18.499 77.6502 18.499C75.3928 18.7241 73.1743 19.2423 71.0508 20.0406V21.4027C72.937 20.8942 74.8616 20.5411 76.8054 20.3468C76.8054 20.3468 72.793 29.3008 71.0508 33.1337C71.7899 33.1337 72.2756 33.1337 72.6346 33.1337C72.9936 33.1337 73.6377 33.1337 74.229 33.1337C75.6369 29.0861 76.9568 25.5665 78.1887 22.5747L79.2446 20.1567C83.5191 19.9496 87.7894 20.644 91.7781 22.1946C91.7781 22.1946 94.8508 29.8288 95.9278 33.1337C96.8781 33.1337 97.6595 33.1337 98.3986 33.1337C99.1377 33.1337 99.8874 33.1337 100.732 33.1337C98.9265 28.9101 97.1315 24.8344 95.3471 20.7375L91.9471 12.8077ZM79.9731 18.2983L80.9235 15.9648L85.1471 6.14492C87.4806 11.6145 90.5533 19.1114 90.5533 19.1114C87.0701 18.4304 83.5195 18.1576 79.9731 18.2983Z" fill="#DE192B"/>
<path id="Vector_11" d="M129.622 0.147887C129.875 5.9483 130.002 12.7941 130.002 20.6852C130.002 21.3293 130.002 22.797 129.907 24.9088C120.868 15.7647 113.012 7.90876 106.307 0.116211H105.389V4.61435C105.389 14.9199 105.181 24.423 104.766 33.1237C105.399 33.1237 105.969 33.1237 106.413 33.1237C106.856 33.1237 107.469 33.1237 108.039 33.1237C107.814 25.31 107.701 18.9394 107.701 14.0119C107.701 12.604 107.733 10.4922 107.796 7.67646L119.411 19.9883C124.923 25.8274 128.988 29.8187 131.681 33.1976H132.293C132.293 28.615 132.293 25.574 132.293 22.8392C132.293 15.0959 132.391 7.53919 132.589 0.169005H129.558L129.622 0.147887Z" fill="#DE192B"/>
<path id="Vector_12" d="M163.844 2.31242C161.563 0.770806 157.99 0 153.126 0C151.68 0 149.958 -3.2255e-07 147.847 0.0739127C145.735 0.147826 144.426 0.147825 143.781 0.147825H140.191C140.318 3.42816 140.381 8.93644 140.381 16.6727C140.381 24.2118 140.318 29.706 140.191 33.1553H151.057C157.244 33.1553 161.946 31.6559 165.163 28.6571C168.38 25.6584 169.992 21.3116 169.999 15.6168C169.999 9.51366 167.948 5.07888 163.844 2.31242ZM149.568 31.2758C148.216 31.2758 146.537 31.1913 144.521 31.0329C144.394 26.4925 144.331 21.2729 144.331 15.3739C144.331 11.0236 144.376 6.60994 144.468 2.13292C146.713 1.97805 149.135 1.8971 151.732 1.89006C156.505 1.89006 159.965 3.03396 162.112 5.32174C164.224 7.61304 165.28 11.3404 165.28 16.5354C165.315 26.3553 160.078 31.2687 149.568 31.2758Z" fill="#DE192B"/>
</g>
</svg>
