<svg width="26" height="26" viewBox="0 0 26 26" fill="none" xmlns="http://www.w3.org/2000/svg">
<g id="Group 1295">
<path id="Vector" d="M15.7242 18.8C20.6395 18.8 24.6242 14.8153 24.6242 9.89999C24.6242 4.98466 20.6395 1 15.7242 1C10.8089 1 6.82422 4.98466 6.82422 9.89999C6.82422 14.8153 10.8089 18.8 15.7242 18.8Z" stroke="#BE1E2D" stroke-width="1.38" stroke-miterlimit="10"/>
<path id="Vector_2" d="M8.2625 19.3603L3.3525 24.2703C2.9625 24.6603 2.33249 24.6603 1.94249 24.2703L1.2925 23.6203C0.9025 23.2303 0.9025 22.6003 1.2925 22.2103L6.2025 17.3003C6.5925 16.9103 7.22251 16.9103 7.61251 17.3003L8.2625 17.9503C8.6525 18.3303 8.6525 18.9703 8.2625 19.3603Z" stroke="#BE1E2D" stroke-width="1.38" stroke-miterlimit="10"/>
<path id="Vector_3" d="M7.71094 17.8295L9.02094 16.5195" stroke="#BE1E2D" stroke-width="1.38" stroke-miterlimit="10"/>
</g>
</svg>
