<svg width="30" height="34" viewBox="0 0 30 34" fill="none" xmlns="http://www.w3.org/2000/svg">
<g id="Group 1154">
<g id="Union">
<mask id="path-1-inside-1_520_11843" fill="white">
<path fill-rule="evenodd" clip-rule="evenodd" d="M26.7856 9.28751C25.2763 7.77822 22.8292 7.77821 21.3199 9.28751L11.6165 18.9909L8.46037 15.8348C6.99653 14.371 4.62316 14.371 3.15932 15.8348C1.69547 17.2987 1.69547 19.672 3.15932 21.1359L8.69225 26.6688C8.83983 26.8164 8.99666 26.9491 9.16087 27.0669C10.6753 28.4995 13.0647 28.4741 14.5481 26.9906L26.7856 14.7532C28.2949 13.2439 28.2949 10.7968 26.7856 9.28751Z"/>
</mask>
<path d="M21.3199 9.28751L22.5927 10.5603L21.3199 9.28751ZM11.6165 18.9909L10.3437 20.2637C10.6813 20.6013 11.1391 20.7909 11.6165 20.7909C12.0939 20.7909 12.5517 20.6013 12.8893 20.2637L11.6165 18.9909ZM8.46037 15.8348L9.73316 14.562L8.46037 15.8348ZM9.16087 27.0669L10.3978 25.7593C10.3388 25.7035 10.2762 25.6518 10.2102 25.6044L9.16087 27.0669ZM22.5927 10.5603C23.3991 9.75395 24.7064 9.75395 25.5128 10.5603L28.0584 8.01472C25.8461 5.80248 22.2594 5.80248 20.0471 8.01472L22.5927 10.5603ZM12.8893 20.2637L22.5927 10.5603L20.0471 8.01472L10.3437 17.7181L12.8893 20.2637ZM7.18758 17.1076L10.3437 20.2637L12.8893 17.7181L9.73316 14.562L7.18758 17.1076ZM4.43211 17.1076C5.19301 16.3467 6.42668 16.3467 7.18758 17.1076L9.73316 14.562C7.56638 12.3952 4.05332 12.3952 1.88653 14.562L4.43211 17.1076ZM4.43211 19.8631C3.67121 19.1022 3.67121 17.8685 4.43211 17.1076L1.88653 14.562C-0.280266 16.7288 -0.280263 20.2419 1.88653 22.4087L4.43211 19.8631ZM9.96504 25.396L4.43211 19.8631L1.88653 22.4087L7.41945 27.9416L9.96504 25.396ZM10.2102 25.6044C10.1252 25.5435 10.0432 25.4741 9.96504 25.396L7.41945 27.9416C7.6365 28.1586 7.86809 28.3547 8.1115 28.5294L10.2102 25.6044ZM13.2753 25.7178C12.483 26.5102 11.2062 26.5239 10.3978 25.7593L7.92393 28.3746C10.1445 30.475 13.6463 30.438 15.8209 28.2634L13.2753 25.7178ZM25.5128 13.4804L13.2753 25.7178L15.8209 28.2634L28.0584 16.026L25.5128 13.4804ZM25.5128 10.5603C26.3191 11.3667 26.3191 12.674 25.5128 13.4804L28.0584 16.026C30.2706 13.8137 30.2706 10.227 28.0584 8.01472L25.5128 10.5603Z" fill="#313131" mask="url(#path-1-inside-1_520_11843)"/>
</g>
<path id="Vector 111" d="M27.2 33.0977H3" stroke="#313131" stroke-width="1.8" stroke-linecap="round"/>
</g>
</svg>
