<svg width="18" height="18" viewBox="0 0 18 18" fill="none" xmlns="http://www.w3.org/2000/svg">
<path id="Vector" d="M11.25 1.16016C11.25 0.520312 11.7703 0 12.4102 0H16.875C17.4973 0 18 0.502734 18 1.125V5.58984C18 6.22969 17.4797 6.75 16.8398 6.75C16.534 6.75 16.2387 6.62695 16.0207 6.40898L14.2031 4.59141L8.27227 10.5223C8.0543 10.7402 7.6957 10.7402 7.47773 10.5223C7.25977 10.3043 7.25977 9.9457 7.47773 9.72773L13.4086 3.79688L11.591 1.9793C11.373 1.76133 11.25 1.46602 11.25 1.16016ZM12.4102 1.125C12.3926 1.125 12.375 1.13906 12.375 1.16016C12.375 1.1707 12.3785 1.17773 12.3855 1.18477L16.8152 5.61445C16.8223 5.62148 16.8293 5.625 16.8398 5.625C16.8574 5.625 16.875 5.61094 16.875 5.58984V1.125H12.4102ZM0 4.5C0 3.25898 1.00898 2.25 2.25 2.25H7.3125C7.62187 2.25 7.875 2.50312 7.875 2.8125C7.875 3.12188 7.62187 3.375 7.3125 3.375H2.25C1.62773 3.375 1.125 3.87773 1.125 4.5V15.75C1.125 16.3723 1.62773 16.875 2.25 16.875H13.5C14.1223 16.875 14.625 16.3723 14.625 15.75V10.6875C14.625 10.3781 14.8781 10.125 15.1875 10.125C15.4969 10.125 15.75 10.3781 15.75 10.6875V13.2188V15.75C15.75 16.991 14.741 18 13.5 18H2.25C1.00898 18 0 16.991 0 15.75V4.5Z" fill="#313131"/>
</svg>
