<svg width="19" height="12" viewBox="0 0 19 12" fill="none" xmlns="http://www.w3.org/2000/svg">
<g id="Group 1355">
<g id="Group 1354">
<path id="Vector" d="M0.850781 5.99072L0.850782 5.99069C0.850826 5.98971 0.852162 5.95939 0.872894 5.89229C0.893074 5.82696 0.92672 5.74248 0.977571 5.63925C1.07945 5.43243 1.23749 5.17638 1.45202 4.88657C1.88041 4.30787 2.50951 3.62763 3.29284 2.97857C4.86759 1.67375 6.99699 0.55 9.30078 0.55C11.6046 0.55 13.734 1.67375 15.3087 2.97857C16.092 3.62763 16.7212 4.30787 17.1495 4.88657C17.3641 5.17638 17.5221 5.43243 17.624 5.63925C17.6748 5.74248 17.7085 5.82696 17.7287 5.89229C17.7498 5.9607 17.7508 5.99087 17.7508 5.99072V5.99074C17.7507 5.99173 17.7494 6.02204 17.7287 6.08915C17.7085 6.15447 17.6748 6.23896 17.624 6.34218C17.5221 6.549 17.3641 6.80505 17.1495 7.09487C16.7212 7.67357 16.092 8.35381 15.3087 9.00286C13.734 10.3077 11.6046 11.4314 9.30078 11.4314C6.99699 11.4314 4.86759 10.3077 3.29284 9.00286C2.50951 8.35381 1.88041 7.67357 1.45202 7.09487C1.23749 6.80505 1.07945 6.549 0.977571 6.34218C0.92672 6.23896 0.893074 6.15447 0.872894 6.08915C0.852163 6.02204 0.850826 5.99173 0.850782 5.99074L0.850781 5.99072Z" stroke="#6C6C6C" stroke-width="1.1"/>
<path id="Vector_2" d="M9.21875 2.4082C7.28881 2.4082 5.71875 3.97826 5.71875 5.9082C5.71875 7.83814 7.28881 9.4082 9.21875 9.4082C11.1487 9.4082 12.7188 7.83814 12.7188 5.9082C12.7188 3.97826 11.1487 2.4082 9.21875 2.4082Z" fill="#6C6C6C"/>
</g>
</g>
</svg>
