<svg width="27" height="26" viewBox="0 0 27 26" fill="none" xmlns="http://www.w3.org/2000/svg">
<g id="Group 1155">
<path id="Vector" d="M12.7 18.0971H3.73979C3.0134 18.0962 2.317 17.7991 1.80336 17.271C1.28973 16.7428 1.00081 16.0266 1 15.2797V3.91507C1.00081 3.1681 1.28973 2.45197 1.80336 1.92378C2.317 1.3956 3.0134 1.09849 3.73979 1.09766H22.4602C23.1866 1.09849 23.883 1.3956 24.3966 1.92378C24.9103 2.45197 25.1992 3.1681 25.2 3.91507V15.2802C25.1992 16.0272 24.9103 16.7433 24.3966 17.2715C23.883 17.7997 23.1866 18.0968 22.4602 18.0977H21.2" stroke="#313131" stroke-width="1.8"/>
<path id="Vector 108" d="M1.09375 5.69727H25.0938" stroke="#313131" stroke-width="1.8"/>
<path id="Vector 109" d="M1.09375 9.09766H25.0938" stroke="#313131" stroke-width="1.8"/>
<path id="Vector 111" d="M13.7938 12.0977L12.0938 22.5977L15.6937 20.7977L17.6937 25.0977L20.8938 23.5977L18.8937 19.4977L22.3938 18.1977L13.7938 12.0977Z" stroke="#313131" stroke-width="1.8" stroke-linejoin="round"/>
</g>
</svg>
