<svg width="26" height="26" viewBox="0 0 26 26" fill="none" xmlns="http://www.w3.org/2000/svg">
<path d="M12.8594 1V4.88998" stroke="#BE1E2D" stroke-width="1.38" stroke-miterlimit="10" stroke-linecap="round"/>
<path d="M16.1987 18.0498C15.5187 18.0498 14.9688 18.5998 14.9688 19.2798C14.9688 19.9598 15.5187 20.4998 16.1987 20.4998C16.8787 20.4998 17.4288 19.9498 17.4288 19.2798C17.4288 18.6098 16.8687 18.0498 16.1987 18.0498Z" fill="#BE1E2D"/>
<path d="M9.44873 13.7295C10.128 13.7295 10.6788 13.1789 10.6788 12.4995C10.6788 11.8202 10.128 11.2695 9.44873 11.2695C8.76942 11.2695 8.21875 11.8202 8.21875 12.4995C8.21875 13.1789 8.76942 13.7295 9.44873 13.7295Z" fill="#BE1E2D"/>
<path d="M23.2 9.20951C23.17 9.17951 23.15 9.13951 23.11 9.11951C23.11 9.11951 17.57 4.65951 15.37 3.26951C14.67 2.73951 13.79 2.50952 12.91 2.52952H12.86C11.98 2.50952 11.11 2.73951 10.4 3.26951C8.67002 4.35951 4.88003 7.3495 3.34003 8.5795C1.94003 9.4695 1 11.0195 1 12.7995V19.6395C1 22.3995 3.24 24.6395 6 24.6395H19.7C22.46 24.6395 24.7 22.3995 24.7 19.6395V12.7995C24.71 11.3795 24.13 10.1195 23.2 9.20951ZM9.45001 9.8895C10.89 9.8895 12.06 11.0595 12.06 12.4995C12.06 13.9395 10.89 15.1095 9.45001 15.1095C8.01001 15.1095 6.84003 13.9395 6.84003 12.4995C6.85003 11.0595 8.02001 9.8895 9.45001 9.8895ZM8.12 21.3695C7.94 21.3695 7.77 21.2995 7.63 21.1695C7.36 20.8995 7.36 20.4595 7.63 20.1895L17.12 10.6995C17.39 10.4295 17.83 10.4295 18.1 10.6995C18.37 10.9695 18.37 11.4095 18.1 11.6795L8.61005 21.1695C8.47005 21.2995 8.29 21.3695 8.12 21.3695ZM16.2 21.8795C14.76 21.8795 13.59 20.7095 13.59 19.2695C13.59 17.8295 14.76 16.6595 16.2 16.6595C17.64 16.6595 18.81 17.8295 18.81 19.2695C18.81 20.7095 17.63 21.8795 16.2 21.8795Z" fill="#BE1E2D"/>
<path d="M12.8599 6.29977C13.2851 6.29977 13.6298 5.95504 13.6298 5.52979C13.6298 5.10453 13.2851 4.75977 12.8599 4.75977C12.4346 4.75977 12.0898 5.10453 12.0898 5.52979C12.0898 5.95504 12.4346 6.29977 12.8599 6.29977Z" stroke="#BE1E2D" stroke-width="1.38" stroke-miterlimit="10" stroke-linecap="round"/>
<path d="M23.2 9.20951C23.17 9.17951 23.15 9.13951 23.11 9.11951C23.11 9.11951 17.57 4.65951 15.37 3.26951C14.67 2.73951 13.79 2.50952 12.91 2.52952H12.86C11.98 2.50952 11.11 2.73951 10.4 3.26951C8.67002 4.35951 4.88003 7.3495 3.34003 8.5795C1.94003 9.4695 1 11.0195 1 12.7995V19.6395C1 22.3995 3.24 24.6395 6 24.6395H19.7C22.46 24.6395 24.7 22.3995 24.7 19.6395V12.7995C24.72 11.3795 24.13 10.1195 23.2 9.20951Z" stroke="#BE1E2D" stroke-width="1.38" stroke-miterlimit="10" stroke-linecap="round"/>
</svg>
