<svg width="26" height="26" viewBox="0 0 26 26" fill="none" xmlns="http://www.w3.org/2000/svg">
<path d="M9.45911 14.4201C10.5195 14.4201 11.3791 13.5605 11.3791 12.5001C11.3791 11.4397 10.5195 10.5801 9.45911 10.5801C8.39872 10.5801 7.53906 11.4397 7.53906 12.5001C7.53906 13.5605 8.39872 14.4201 9.45911 14.4201Z" stroke="#313131" stroke-width="1.38" stroke-miterlimit="10" stroke-linecap="round"/>
<path d="M16.2012 21.1896C17.2616 21.1896 18.1212 20.33 18.1212 19.2696C18.1212 18.2092 17.2616 17.3496 16.2012 17.3496C15.1408 17.3496 14.2812 18.2092 14.2812 19.2696C14.2812 20.33 15.1408 21.1896 16.2012 21.1896Z" stroke="#313131" stroke-width="1.38" stroke-miterlimit="10" stroke-linecap="round"/>
<path d="M8.12109 20.6797L17.6211 11.1797" stroke="#313131" stroke-width="1.38" stroke-miterlimit="10" stroke-linecap="round"/>
<path d="M12.8711 1V4.88998" stroke="#313131" stroke-width="1.38" stroke-miterlimit="10" stroke-linecap="round"/>
<path d="M12.8715 6.29977C13.2968 6.29977 13.6415 5.95504 13.6415 5.52979C13.6415 5.10453 13.2968 4.75977 12.8715 4.75977C12.4463 4.75977 12.1016 5.10453 12.1016 5.52979C12.1016 5.95504 12.4463 6.29977 12.8715 6.29977Z" stroke="#313131" stroke-width="1.38" stroke-miterlimit="10" stroke-linecap="round"/>
<path d="M23.2 9.20951C23.17 9.17951 23.15 9.13951 23.11 9.11951C23.11 9.11951 17.57 4.65951 15.37 3.26951C14.67 2.73951 13.79 2.50952 12.91 2.52952H12.86C11.98 2.50952 11.11 2.73951 10.4 3.26951C8.67002 4.35951 4.88003 7.3495 3.34003 8.5795C1.94003 9.4695 1 11.0195 1 12.7995V19.6395C1 22.3995 3.24 24.6395 6 24.6395H19.7C22.46 24.6395 24.7 22.3995 24.7 19.6395V12.7995C24.72 11.3795 24.14 10.1195 23.2 9.20951Z" stroke="#313131" stroke-width="1.38" stroke-miterlimit="10" stroke-linecap="round"/>
</svg>
