<svg width="18" height="18" viewBox="0 0 18 18" fill="none" xmlns="http://www.w3.org/2000/svg">
<path id="Vector" d="M8.4375 0C3.7793 0 0 3.7793 0 8.4375C0 8.74687 0.253124 9 0.5625 9C0.871876 9 1.125 8.74687 1.125 8.4375C1.125 4.39805 4.39805 1.125 8.4375 1.125C8.74687 1.125 9 0.871875 9 0.5625C9 0.253125 8.74687 0 8.4375 0ZM7.875 6.75C7.57663 6.75 7.29048 6.86853 7.0795 7.0795C6.86853 7.29048 6.75 7.57663 6.75 7.875C6.75 8.17337 6.86853 8.45952 7.0795 8.6705C7.29048 8.88147 7.57663 9 7.875 9C8.17337 9 8.45952 8.88147 8.6705 8.6705C8.88147 8.45952 9 8.17337 9 7.875C9 7.57663 8.88147 7.29048 8.6705 7.0795C8.45952 6.86853 8.17337 6.75 7.875 6.75ZM9 3.9375C9 3.62812 8.74687 3.375 8.4375 3.375C5.64258 3.375 3.375 5.64258 3.375 8.4375C3.375 8.74687 3.62813 9 3.9375 9C4.24687 9 4.5 8.74687 4.5 8.4375C4.5 6.26133 6.26133 4.5 8.4375 4.5C8.74687 4.5 9 4.24687 9 3.9375ZM6.43359 10.0793C6.03633 9.59414 5.36836 9.42891 4.7918 9.67852L0.854296 11.366C0.235546 11.6297 -0.108984 12.2977 0.031641 12.9516L0.875391 16.8891C1.01602 17.5359 1.58906 18 2.25 18C2.46445 18 2.67891 17.9965 2.89336 17.9859H2.89687C3.05859 17.9789 3.2168 17.9719 3.37852 17.9578C11.5488 17.3848 18 10.5715 18 2.25C18 1.58555 17.5359 1.0125 16.8891 0.875391L12.9516 0.0316406C12.2941 -0.108984 11.6297 0.235547 11.366 0.854297L9.67852 4.7918C9.43242 5.36836 9.59414 6.03633 10.0793 6.43359L11.5066 7.60078C10.568 9.21797 9.21797 10.568 7.60078 11.5066L6.43359 10.0793ZM2.25 16.875C2.11641 16.875 2.00391 16.7836 1.97578 16.6535L1.13203 12.716C1.10391 12.5859 1.17422 12.4523 1.29727 12.3996L5.23477 10.7121C5.35078 10.6629 5.48438 10.6945 5.56172 10.793L6.72891 12.2203C7.07695 12.6457 7.68516 12.7582 8.16328 12.4805C9.95273 11.4434 11.4434 9.95273 12.477 8.1668C12.7547 7.68867 12.6422 7.08047 12.2168 6.73242L10.7895 5.56523C10.691 5.48438 10.6594 5.35078 10.7086 5.23828L12.3961 1.30078C12.4488 1.17773 12.5824 1.10742 12.7125 1.13555L16.65 1.9793C16.7836 2.00391 16.875 2.11641 16.875 2.25C16.875 10.3219 10.3324 16.868 2.26055 16.875H2.25Z" fill="#313131"/>
</svg>
