<svg width="17" height="15" viewBox="0 0 17 15" fill="none" xmlns="http://www.w3.org/2000/svg">
<g id="Group 1043">
<path id="Vector 63" d="M4.41797 5.42691L4.41797 13.6406" stroke="#919191"/>
<g id="Group 1041">
<g id="Layer 2">
<path id="Vector" d="M2.73438 5.61235L2.73471 5.61235L4.25711 5.61235C4.42286 5.61235 4.57977 5.5376 4.6842 5.4089L7.8372 1.52305L7.83747 1.52271C8.04484 1.26674 8.37634 1.06167 8.78525 0.970733C9.19372 0.879899 9.62787 0.915083 10.0012 1.06506C10.3747 1.2151 10.641 1.46015 10.7782 1.72905C10.9124 1.99222 10.9239 2.27677 10.816 2.54197L10.8158 2.54253L9.87739 4.85559C9.8086 5.02515 9.82864 5.21781 9.93086 5.36958C10.0331 5.52135 10.2041 5.61235 10.387 5.61235H13.5001C13.8386 5.61236 14.1694 5.67753 14.4651 5.79956C14.7609 5.92162 15.008 6.09482 15.1921 6.29804C15.3757 6.50067 15.4909 6.72644 15.5398 6.95474C15.5885 7.18218 15.5724 7.41592 15.4903 7.64089C15.4902 7.64091 15.4902 7.64092 15.4902 7.64094L13.7772 12.3311L13.7763 12.3336C13.6642 12.6451 13.4237 12.9405 13.0646 13.1599C12.7051 13.3797 12.2572 13.5035 11.7888 13.5019H11.787H2.73471C2.15532 13.5016 1.61647 13.3115 1.23339 12.9968C0.853434 12.6848 0.667606 12.2874 0.667188 11.902V7.21228C0.667606 6.82687 0.853434 6.42954 1.23339 6.11745L0.884302 5.69244M2.73438 5.61235V5.06235C2.04041 5.06277 1.37501 5.28938 0.884302 5.69244M2.73438 5.61235C2.15512 5.61277 1.61639 5.80286 1.23339 6.11745L0.884302 5.69244M2.73438 5.61235L0.884302 5.69244" stroke="#919191" stroke-width="1.1" stroke-linejoin="round"/>
</g>
</g>
</g>
</svg>
