<svg width="17" height="15" viewBox="0 0 17 15" fill="none" xmlns="http://www.w3.org/2000/svg">
<g id="Group 1042">
<path id="Vector 63" d="M4.81641 8.99594V0.782227" stroke="#919191"/>
<g id="Group 1041">
<g id="Layer 2">
<path id="Vector" d="M3.13282 8.8105L3.13314 8.8105L4.65555 8.8105C4.82129 8.8105 4.9782 8.88525 5.08264 9.01396L8.23564 12.8998L8.23591 12.9001C8.44327 13.1561 8.77477 13.3612 9.18369 13.4521C9.59215 13.543 10.0263 13.5078 10.3997 13.3578C10.7732 13.2078 11.0395 12.9627 11.1766 12.6938C11.3108 12.4306 11.3224 12.1461 11.2144 11.8809L11.2142 11.8803L10.2758 9.56726C10.207 9.3977 10.2271 9.20504 10.3293 9.05327C10.4315 8.9015 10.6025 8.8105 10.7855 8.8105L13.8985 8.8105C14.237 8.81049 14.5678 8.74532 14.8636 8.62329C15.1594 8.50123 15.4064 8.32803 15.5905 8.12482C15.7741 7.92218 15.8893 7.69641 15.9382 7.46811C15.987 7.24067 15.9708 7.00693 15.8887 6.78196C15.8887 6.78194 15.8887 6.78193 15.8887 6.78191L14.1756 2.09174L14.1747 2.08921C14.0627 1.77778 13.8221 1.48239 13.463 1.26293C13.1035 1.04318 12.6556 0.919342 12.1873 0.920906H12.1854L3.13314 0.920906C2.55376 0.921251 2.0149 1.11136 1.63183 1.426C1.25187 1.73809 1.06604 2.13543 1.06563 2.52083L1.06563 7.21057C1.06604 7.59598 1.25187 7.99331 1.63183 8.3054L1.28274 8.73041M3.13282 8.8105V9.3605C2.43885 9.36009 1.77345 9.13347 1.28274 8.73041M3.13282 8.8105C2.55355 8.81008 2.01483 8.61999 1.63183 8.3054L1.28274 8.73041M3.13282 8.8105L1.28274 8.73041" stroke="#919191" stroke-width="1.1" stroke-linejoin="round"/>
</g>
</g>
</g>
</svg>
