<svg width="18" height="20" viewBox="0 0 18 20" fill="none" xmlns="http://www.w3.org/2000/svg">
<g id="Group 1364">
<path id="Vector" d="M12.5252 3.71875L12.5981 4.18347H13.0685H17.4034C17.4035 4.18353 17.4037 4.18359 17.4039 4.18367C17.4057 4.18449 17.411 4.18736 17.418 4.19515C17.4333 4.21197 17.45 4.24543 17.45 4.29035V6.85444C17.45 6.89936 17.4333 6.93282 17.418 6.94964C17.411 6.95743 17.4057 6.96031 17.4039 6.96112C17.4037 6.9612 17.4035 6.96127 17.4034 6.96132H16.1825H15.6831L15.6351 7.45846L14.5444 18.7532L14.5443 18.7532L14.5436 18.7632C14.5276 18.9675 14.443 19.1474 14.3205 19.271C14.1994 19.393 14.0522 19.4507 13.9105 19.45H13.9079L4.06213 19.45L4.05946 19.45C3.91779 19.4507 3.7706 19.393 3.64953 19.271C3.52697 19.1474 3.44243 18.9675 3.42643 18.7633L3.42652 18.7633L3.42557 18.7534L2.33491 7.45846L2.28691 6.96132H1.78746H0.596583C0.596456 6.96127 0.596303 6.9612 0.596125 6.96112C0.594352 6.96031 0.589012 6.95743 0.581955 6.94964C0.566737 6.93284 0.550094 6.89946 0.55 6.85463V4.29016C0.550094 4.24534 0.566737 4.21195 0.581955 4.19515C0.589012 4.18736 0.594352 4.18448 0.596125 4.18367C0.596303 4.18359 0.596456 4.18353 0.596584 4.18347H4.90146H5.37187L5.44481 3.71875L5.94214 0.55H12.0279L12.5252 3.71875Z" stroke="#C2C2C2" stroke-width="1.1"/>
<path id="Vector 136" d="M6.28906 9.69922L6.91906 16.6993" stroke="#C2C2C2" stroke-width="1.1" stroke-linecap="round"/>
<path id="Vector 138" d="M11.7031 9.69922L11.0731 16.6993" stroke="#C2C2C2" stroke-width="1.1" stroke-linecap="round"/>
<path id="Vector 146" d="M1.36719 6.99805H16.2172" stroke="#C2C2C2" stroke-width="1.1" stroke-linecap="round"/>
<path id="Vector 147" d="M5.41406 4.19922H12.6141" stroke="#C2C2C2" stroke-width="1.1" stroke-linecap="round"/>
</g>
</svg>
