<svg width="63" height="63" viewBox="0 0 63 63" fill="none" xmlns="http://www.w3.org/2000/svg">
<g id="Group 1292">
<path id="Vector" d="M11.4993 22.5231L1 16.4355L1.02021 46.6814L27.5207 62.1072V31.9219L11.7618 22.6644" stroke="#313131" stroke-width="1.1" stroke-miterlimit="10" stroke-linecap="round" stroke-linejoin="round"/>
<path id="Vector_2" d="M53.9694 16.446L27.5194 1L1.03906 16.4359" stroke="#313131" stroke-width="1.1" stroke-miterlimit="10" stroke-linecap="round" stroke-linejoin="round"/>
<path id="Vector_3" d="M53.9734 32.9416V16.4456L53.933 16.4355L27.5234 31.9219V32.0128V62.1072L35.7613 57.4028" stroke="#313131" stroke-width="1.1" stroke-miterlimit="10" stroke-linecap="round" stroke-linejoin="round"/>
<path id="Vector_4" d="M37.364 7.57156L11.6914 22.644L16.9107 25.6625L43.1184 10.2065L37.5861 6.93555" stroke="#313131" stroke-width="1.1" stroke-miterlimit="10" stroke-linecap="round" stroke-linejoin="round"/>
<path id="Vector_5" d="M46.9231 62.1275C55.331 62.1275 62.147 55.3115 62.147 46.9036C62.147 38.4956 55.331 31.6797 46.9231 31.6797C38.5151 31.6797 31.6992 38.4956 31.6992 46.9036C31.6992 55.3115 38.5151 62.1275 46.9231 62.1275Z" stroke="#DE192B" stroke-width="1.1" stroke-miterlimit="10"/>
<path id="Vector_6" d="M10.6602 32.4668L17.1818 36.1617" stroke="#313131" stroke-width="1.1" stroke-miterlimit="10" stroke-linecap="round" stroke-linejoin="round"/>
<path id="Vector_7" d="M12.207 46.5503C12.5402 43.764 13.156 40.2709 17.174 36.1621" stroke="#313131" stroke-width="1.1" stroke-miterlimit="10" stroke-linecap="round" stroke-linejoin="round"/>
<path id="Vector_8" d="M42.3703 41.0791L39.5234 44.027V44.1077L42.3703 47.0556" stroke="#DE192B" stroke-width="1.1" stroke-miterlimit="10" stroke-linecap="round" stroke-linejoin="round"/>
<path id="Vector_9" d="M46.4619 52.7188H50.0256H49.9953C52.3879 52.7188 54.3161 50.7805 54.3161 48.398C54.3161 46.0155 52.3778 44.0771 49.9953 44.0771H40.2734" stroke="#DE192B" stroke-width="1.1" stroke-miterlimit="10" stroke-linecap="round" stroke-linejoin="round"/>
</g>
</svg>
