<svg width="26" height="26" viewBox="0 0 26 26" fill="none" xmlns="http://www.w3.org/2000/svg">
<g id="Group 914">
<path id="Vector" d="M5 1.30078H7.1C9.31 1.30078 11.1 3.09078 11.1 5.30078V11.2008C11.1 11.3108 11.01 11.4008 10.9 11.4008H5C2.79 11.4008 1 9.61076 1 7.40076V5.30078C1 3.09078 2.8 1.30078 5 1.30078Z" stroke="#313131" stroke-width="1.38" stroke-miterlimit="10"/>
<path id="Vector_2" d="M20.6 1.30078H18.5C16.29 1.30078 14.5 3.09078 14.5 5.30078V11.2008C14.5 11.3108 14.59 11.4008 14.7 11.4008H20.6C22.81 11.4008 24.6 9.61076 24.6 7.40076V5.30078C24.6 3.09078 22.81 1.30078 20.6 1.30078Z" stroke="#313131" stroke-width="1.38" stroke-miterlimit="10"/>
<path id="Vector_3" d="M20.6 24.8607H18.5C16.29 24.8607 14.5 23.0707 14.5 20.8607V14.9608C14.5 14.8508 14.59 14.7607 14.7 14.7607H20.6C22.81 14.7607 24.6 16.5507 24.6 18.7607V20.8607C24.6 23.0707 22.81 24.8607 20.6 24.8607Z" stroke="#313131" stroke-width="1.38" stroke-miterlimit="10"/>
<path id="Vector_4" d="M5 24.8607H7.1C9.31 24.8607 11.1 23.0707 11.1 20.8607V14.9608C11.1 14.8508 11.01 14.7607 10.9 14.7607H5C2.79 14.7607 1 16.5507 1 18.7607V20.8607C1 23.0707 2.8 24.8607 5 24.8607Z" stroke="#313131" stroke-width="1.38" stroke-miterlimit="10"/>
</g>
</svg>
