<svg width="26" height="26" viewBox="0 0 26 26" fill="none" xmlns="http://www.w3.org/2000/svg">
<g id="Group 1279">
<path id="Vector" d="M16.7494 24.6317H8.85938V18.1816C8.85938 17.0816 9.75937 16.1816 10.8594 16.1816H14.7494C15.8494 16.1816 16.7494 17.0816 16.7494 18.1816V24.6317Z" stroke="#BE1E2D" stroke-width="1.38" stroke-miterlimit="10"/>
<path id="Vector_2" d="M11.3594 19.8916V21.3416" stroke="#BE1E2D" stroke-width="1.38" stroke-miterlimit="10" stroke-linecap="round"/>
<path id="Vector_3" d="M16.6089 7.32196C16.6089 7.00196 16.2989 4.76195 15.6689 1.68195C15.5289 0.991946 16.5689 1.01196 15.3489 1.01196H13.2589H12.2889L10.2289 1.00195C9.09888 1.00195 10.0289 1.15195 9.88892 1.84195C9.22892 5.09195 8.90889 7.01195 8.92889 7.47195C8.89889 7.83195 8.87891 8.05196 8.87891 8.35196C8.87891 10.532 10.5989 12.3019 12.7789 12.3019C14.9589 12.3019 16.6389 10.532 16.6389 8.35196C16.6489 8.04196 16.6289 7.76196 16.6089 7.32196Z" stroke="#BE1E2D" stroke-width="1.38" stroke-miterlimit="10"/>
<path id="Vector_4" d="M1 8.1123V22.6423C1 23.7423 1.9 24.6423 3 24.6423H22.61C23.71 24.6423 24.6 23.7423 24.6 22.6423L24.61 8.23233" stroke="#BE1E2D" stroke-width="1.38" stroke-miterlimit="10"/>
<path id="Vector_5" d="M24.5569 7.4819C24.5569 7.4819 24.5369 5.63189 23.0969 2.91189C23.0369 2.79189 22.9669 2.67187 22.8969 2.55187C22.7669 2.33187 22.2369 0.941886 20.6469 1.00189H15.5469C15.5469 1.00189 16.0369 3.53188 16.3969 5.53188C16.5369 6.28188 16.6369 6.91189 16.6969 8.35189C16.7969 10.5319 18.4669 12.3019 20.6469 12.3019C22.8269 12.3019 24.5969 10.5319 24.5969 8.35189C24.6069 8.05189 24.5569 7.4819 24.5569 7.4819Z" stroke="#BE1E2D" stroke-width="1.38" stroke-miterlimit="10" stroke-linecap="round"/>
<path id="Vector_6" d="M1.04999 7.48172C1.04999 7.48172 1.06999 5.1417 3.10999 1.8717C3.53999 1.1817 3.70001 1.01172 4.95001 1.01172H10.05C10.05 1.01172 9.56001 3.54172 9.20001 5.54172C9.06001 6.29172 8.96002 6.92169 8.90002 8.36169C8.80002 10.5417 7.13001 12.3117 4.95001 12.3117C2.77001 12.3117 1 10.5417 1 8.36169C1 8.05169 1.04999 7.48172 1.04999 7.48172Z" stroke="#BE1E2D" stroke-width="1.38" stroke-miterlimit="10"/>
</g>
</svg>
