<svg width="132" height="31" viewBox="0 0 132 31" fill="none" xmlns="http://www.w3.org/2000/svg">
<rect width="132" height="31" fill="#D9D9D9"/>
<g id="&#217;&#136;&#216;&#177;&#217;&#136;&#216;&#175;/&#216;&#185;&#216;&#182;&#217;&#136;&#219;&#140;&#216;&#170; 3">
<rect width="1920" height="1696" transform="translate(-1629 -1368)" fill="white"/>
<g id="Group 1337">
<g id="Component 356">
<path id="Rectangle 544" d="M-1629 274.098H291V-287.902H-1629V274.098Z" fill="white"/>
<g id="Group 765">
<g id="Group 752">
<g id="Group 751">
<path id="Subtract" fill-rule="evenodd" clip-rule="evenodd" d="M2 1.84766C0.89543 1.84766 0 2.74309 0 3.84766V28.5977C0 29.7022 0.895431 30.5977 2 30.5977H26.75C27.8546 30.5977 28.75 29.7022 28.75 28.5977V3.84766C28.75 2.74309 27.8546 1.84766 26.75 1.84766H2ZM3.83203 8.07655C3.83203 6.4916 5.12226 5.20215 6.70819 5.20215C8.29285 5.20215 9.5821 6.4916 9.58203 8.07655C9.58203 9.66213 8.29285 10.9521 6.70819 10.9521C5.12226 10.9521 3.83203 9.6622 3.83203 8.07655ZM4.64418 11.9102H8.77249C8.95571 11.9102 9.10417 12.0686 9.10417 12.2639V26.4105C9.10417 26.606 8.95571 26.7643 8.77249 26.7643H4.64418C4.46096 26.7643 4.3125 26.606 4.3125 26.4105V12.2639C4.3125 12.0686 4.46096 11.9102 4.64418 11.9102ZM19.7844 11.9102C18.0216 11.9102 16.7185 12.6529 15.9281 13.4968V12.5993C15.9281 12.4084 15.7703 12.2537 15.5755 12.2537H11.3722C11.1774 12.2537 11.0195 12.4084 11.0195 12.5993V26.4187C11.0195 26.6096 11.1774 26.7643 11.3722 26.7643H15.7516C15.9464 26.7643 16.1043 26.6096 16.1043 26.4187V19.5813C16.1043 17.2773 16.7428 16.3796 18.3816 16.3796C20.1663 16.3796 20.3082 17.8186 20.3082 19.6998V26.4188C20.3082 26.6097 20.466 26.7644 20.6608 26.7644H25.0419C25.2367 26.7644 25.3945 26.6097 25.3945 26.4188V18.8386C25.3945 15.4126 24.728 11.9102 19.7844 11.9102Z" fill="#313131"/>
</g>
</g>
<g id="Group 750">
<path id="Vector" d="M64.3516 1.84766C60.4476 1.84766 59.958 1.86422 58.4248 1.93415C56.8947 2.00395 55.8497 2.24699 54.9354 2.60228C53.9901 2.96965 53.1884 3.4612 52.3893 4.26034C51.5901 5.05947 51.0986 5.86122 50.7312 6.8065C50.3759 7.72084 50.1329 8.7658 50.063 10.2958C49.9931 11.8291 49.9766 12.3187 49.9766 16.2227C49.9766 20.1267 49.9931 20.6162 50.063 22.1495C50.1329 23.6795 50.3759 24.7245 50.7312 25.6388C51.0986 26.5841 51.5902 27.3858 52.3893 28.185C53.1885 28.9841 53.9901 29.4757 54.9354 29.843C55.8497 30.1983 56.8947 30.4413 58.4248 30.5112C59.958 30.5811 60.4476 30.5977 64.3516 30.5977C68.2556 30.5977 68.7451 30.5811 70.2784 30.5112C71.8084 30.4414 72.8534 30.1983 73.7677 29.843C74.713 29.4757 75.5147 28.9841 76.3139 28.185C77.113 27.3858 77.6046 26.5841 77.9719 25.6388C78.3272 24.7245 78.5703 23.6795 78.6401 22.1495C78.71 20.6162 78.7266 20.1267 78.7266 16.2227C78.7266 12.3187 78.71 11.8291 78.6401 10.2958C78.5703 8.7658 78.3272 7.72084 77.9719 6.8065C77.6046 5.86122 77.113 5.05947 76.3139 4.26034C75.5147 3.4612 74.713 2.96965 73.7677 2.60228C72.8534 2.24699 71.8084 2.00395 70.2784 1.93415C68.7451 1.86422 68.2556 1.84766 64.3516 1.84766ZM64.3516 4.43773C68.1898 4.43773 68.6445 4.45241 70.1603 4.52157C71.5619 4.58546 72.323 4.81964 72.8295 5.0165C73.5005 5.2773 73.9794 5.58877 74.4824 6.0918C74.9854 6.59483 75.2969 7.07372 75.5577 7.74468C75.7546 8.25121 75.9888 9.01239 76.0527 10.4139C76.1218 11.9297 76.1365 12.3844 76.1365 16.2227C76.1365 20.0609 76.1218 20.5156 76.0527 22.0314C75.9888 23.433 75.7546 24.1941 75.5577 24.7006C75.2969 25.3716 74.9854 25.8505 74.4824 26.3535C73.9794 26.8565 73.5005 27.168 72.8295 27.4288C72.323 27.6257 71.5618 27.8599 70.1603 27.9237C68.6448 27.9929 68.1901 28.0076 64.3516 28.0076C60.513 28.0076 60.0585 27.9929 58.5428 27.9237C57.1413 27.8599 56.3801 27.6257 55.8736 27.4288C55.2026 27.168 54.7237 26.8565 54.2208 26.3535C53.7177 25.8505 53.4062 25.3716 53.1454 24.7006C52.9485 24.1941 52.7144 23.4329 52.6505 22.0314C52.5813 20.5156 52.5666 20.0609 52.5666 16.2227C52.5666 12.3844 52.5813 11.9297 52.6505 10.4139C52.7144 9.01235 52.9485 8.25121 53.1454 7.74472C53.4062 7.07368 53.7177 6.59483 54.2207 6.09184C54.7237 5.58877 55.2026 5.2773 55.8736 5.0165C56.3801 4.81964 57.1413 4.58546 58.5428 4.52157C60.0586 4.45241 60.5133 4.43773 64.3516 4.43773Z" fill="#313131"/>
<path id="Vector_2" d="M64.3505 21.0143C61.7041 21.0143 59.5588 18.869 59.5588 16.2227C59.5588 13.5763 61.7041 11.431 64.3505 11.431C66.9969 11.431 69.1422 13.5763 69.1422 16.2227C69.1422 18.869 66.9969 21.0143 64.3505 21.0143ZM64.3505 8.84091C60.2736 8.84091 56.9688 12.1458 56.9688 16.2227C56.9688 20.2995 60.2736 23.6044 64.3505 23.6044C68.4274 23.6044 71.7323 20.2995 71.7323 16.2227C71.7323 12.1458 68.4274 8.84091 64.3505 8.84091ZM73.7489 8.54925C73.7489 9.50198 72.9766 10.2742 72.0239 10.2742C71.0713 10.2742 70.2989 9.50198 70.2989 8.54925C70.2989 7.59656 71.0713 6.82422 72.0239 6.82422C72.9766 6.82422 73.7489 7.59656 73.7489 8.54925Z" fill="#313131"/>
</g>
<path id="Vector_3" d="M116.25 2.58935C104.657 2.5856 98.8504 16.5946 107.046 24.7892C108.865 26.6083 111.183 27.8473 113.707 28.3494C116.231 28.8515 118.847 28.5941 121.224 27.6099C123.602 26.6257 125.634 24.9588 127.064 22.8201C128.494 20.6813 129.257 18.1668 129.257 15.5945C129.257 8.41371 123.435 2.59185 116.25 2.58935ZM108.883 9.07629C109.509 5.82844 113.752 4.95835 115.606 7.69739C117.461 10.4352 115.078 14.0506 111.829 13.4255C111.35 13.3335 110.894 13.148 110.486 12.8795C110.079 12.6111 109.728 12.2651 109.455 11.8612C109.181 11.4573 108.99 11.0034 108.891 10.5256C108.793 10.0478 108.79 9.55527 108.883 9.07629ZM114.288 20.3125C113.658 23.5591 109.414 24.4229 107.563 21.6826C105.713 18.9423 108.097 15.332 111.347 15.9583C111.826 16.0508 112.282 16.2369 112.689 16.5059C113.097 16.7749 113.447 17.1215 113.72 17.5259C113.993 17.9303 114.184 18.3845 114.282 18.8627C114.379 19.3408 114.381 19.8335 114.288 20.3125ZM115.864 17.3059C114.423 17.0271 114.035 15.1469 115.25 14.3218C116.463 13.4968 118.071 14.5469 117.801 15.9895C117.761 16.2033 117.679 16.4071 117.56 16.5891C117.441 16.7711 117.287 16.9278 117.107 17.0502C116.927 17.1725 116.725 17.2581 116.512 17.302C116.298 17.3459 116.077 17.3472 115.864 17.3059ZM123.615 22.1039C122.989 25.3518 118.746 26.2206 116.892 23.4828C115.036 20.7438 117.418 17.1296 120.669 17.7535C121.148 17.8455 121.605 18.031 122.012 18.2995C122.42 18.568 122.77 18.9142 123.044 19.3182C123.318 19.7223 123.509 20.1763 123.607 20.6542C123.705 21.1322 123.708 21.6248 123.615 22.1039ZM121.155 15.2257C117.906 14.5994 117.037 10.3552 119.777 8.49998C122.516 6.64603 126.131 9.02753 125.507 12.2754C125.416 12.755 125.231 13.2119 124.962 13.6198C124.694 14.0278 124.348 14.3789 123.943 14.6529C123.539 14.927 123.085 15.1186 122.606 15.2169C122.128 15.3152 121.635 15.3182 121.155 15.2257ZM118.237 29.6797L121.069 30.4423C122.259 30.7581 123.527 30.5884 124.592 29.9704C125.658 29.3525 126.434 28.3369 126.75 27.147L127.551 24.1441C125.297 27.1446 121.95 29.1341 118.236 29.6797H118.237ZM127.796 5.09586L124.841 4.30953C126.334 5.45784 127.585 6.89123 128.519 8.52651C129.454 10.1618 130.055 11.9664 130.286 13.8355L131.099 10.7615C131.41 9.57226 131.237 8.30827 130.617 7.24651C129.998 6.18475 128.982 5.41183 127.793 5.09711L127.796 5.09586ZM102.082 17.8597L101.405 20.41C101.09 21.6001 101.259 22.8669 101.877 23.9319C102.496 24.9969 103.512 25.7729 104.702 26.0893L107.337 26.7919C104.524 24.581 102.648 21.3918 102.082 17.8597ZM114.194 1.47423L111.434 0.754153C110.844 0.597066 110.229 0.557742 109.624 0.638427C109.019 0.719112 108.435 0.918226 107.907 1.22438C107.379 1.53054 106.917 1.93775 106.546 2.42271C106.175 2.90768 105.904 3.4609 105.748 4.05075L105.058 6.65353C107.332 3.82528 110.599 1.97244 114.194 1.47423Z" fill="#313131"/>
</g>
</g>
</g>
</g>
</svg>
