<svg width="17" height="17" viewBox="0 0 17 17" fill="none" xmlns="http://www.w3.org/2000/svg">
<g id="Vector">
<path id="Vector_2" d="M16.2414 6.60361C16.1083 6.17913 15.7614 5.86308 15.3387 5.77743L11.3204 4.96525L9.3433 1.23108C9.13442 0.836333 8.73534 0.591797 8.30078 0.591797C7.86797 0.591797 7.46713 0.836327 7.25826 1.23108L5.28119 4.96525L1.26107 5.77755C0.838364 5.86308 0.493103 6.17926 0.359991 6.60193C0.22524 7.0264 0.324629 7.49271 0.61598 7.81934L3.41683 10.9562L2.91494 15.2094C2.86278 15.6548 3.04793 16.0932 3.39825 16.3551C3.74856 16.6189 4.20829 16.6625 4.59902 16.4721L8.30095 14.6661L11.9993 16.4738C12.3917 16.666 12.8515 16.6205 13.2018 16.3586C13.5538 16.0966 13.739 15.6564 13.6869 15.2111L13.1834 10.9579L15.9841 7.82104C16.277 7.4945 16.3764 7.02823 16.2416 6.60376L16.2414 6.60361Z" fill="#E4E4E4"/>
</g>
</svg>
