<svg width="26" height="26" viewBox="0 0 26 26" fill="none" xmlns="http://www.w3.org/2000/svg">
<g id="Group 1285">
<path id="Vector" d="M1.01613 11.4712C1.01613 11.4712 0.106191 1.61117 11.9562 1.32117C12.2462 1.31117 22.6762 0.491179 23.2062 10.3612C23.2062 10.3612 22.0661 10.8612 20.5061 10.6312C19.0261 10.4112 18.0962 9.67117 17.7062 9.41117C17.1262 9.05117 16.6361 8.53116 16.6361 8.53116C15.8361 7.67116 15.7862 7.13117 15.4162 7.13117C15.1062 7.13117 14.8461 7.90117 14.3561 8.44117C12.7661 10.1812 10.8462 12.0612 5.91615 12.4112C3.35615 12.5912 2.20614 12.1212 1.02614 11.5212" stroke="#BE1E2D" stroke-width="1.38" stroke-miterlimit="10" stroke-linecap="round" stroke-linejoin="round"/>
<path id="Vector_2" d="M13.3048 21.311H10.8647C10.0947 21.311 9.46484 20.681 9.46484 19.911V19.481C9.46484 18.711 10.0948 18.0811 10.9148 18.0811H13.3547C14.0647 18.0811 14.6948 18.711 14.6948 19.481V19.911C14.7048 20.681 14.0748 21.311 13.3048 21.311Z" stroke="#BE1E2D" stroke-width="1.38" stroke-miterlimit="10" stroke-linecap="round" stroke-linejoin="round"/>
<path id="Vector_3" d="M14.7969 19.6914H20.9968" stroke="#BE1E2D" stroke-width="1.38" stroke-miterlimit="10" stroke-linecap="round" stroke-linejoin="round"/>
<path id="Vector_4" d="M20.0664 19.6907H22.9264C23.9264 19.6907 24.7463 18.8807 24.7463 17.8707V12.5807C24.7463 11.5807 23.9364 10.7607 22.9264 10.7607H21.0664" stroke="#BE1E2D" stroke-width="1.38" stroke-miterlimit="10" stroke-linecap="round" stroke-linejoin="round"/>
<path id="Vector_5" d="M20.9328 10.8408C20.9328 11.2808 20.9428 13.2108 20.9528 13.6108C20.9728 14.4508 20.9728 15.3108 20.9328 16.1508C20.7228 20.9708 16.9627 24.9408 12.1427 24.9408H12.0227C7.20273 24.9408 3.44269 20.9708 3.23269 16.1508C3.19269 15.3108 3.18279 14.4608 3.21279 13.6108C3.22279 13.2108 3.23269 12.7708 3.23269 12.3308" stroke="#BE1E2D" stroke-width="1.38" stroke-miterlimit="10" stroke-linecap="round" stroke-linejoin="round"/>
</g>
</svg>
