<svg width="63" height="63" viewBox="0 0 63 63" fill="none" xmlns="http://www.w3.org/2000/svg">
<g id="Group 1290">
<path id="Vector" d="M43.5479 29.1846C43.5479 29.8351 43.5682 32.7014 43.5783 33.3011C43.6088 34.5513 43.5987 35.8218 43.5479 37.0619C43.2328 44.2175 37.6526 50.1128 30.4969 50.1128H30.314C23.1583 50.1128 17.5782 44.2175 17.2631 37.0619C17.2123 35.8117 17.1919 34.5513 17.2326 33.3011C17.2529 32.7014 17.2631 32.0509 17.2631 31.4004" stroke="#313131" stroke-width="1.1" stroke-miterlimit="10" stroke-linecap="round" stroke-linejoin="round"/>
<path id="Vector_2" d="M32.2154 44.7161H28.5969C27.4484 44.7161 26.5234 43.7911 26.5234 42.6426V42.0022C26.5234 40.8537 27.4484 39.9287 28.6783 39.9287H32.2967C33.3538 39.9287 34.289 40.8537 34.289 42.0022V42.6426C34.289 43.7911 33.3538 44.7161 32.2154 44.7161Z" stroke="#DE192B" stroke-width="1.1" stroke-miterlimit="10" stroke-linecap="round" stroke-linejoin="round"/>
<path id="Vector_3" d="M34.4297 42.3076H43.6182" stroke="#DE192B" stroke-width="1.1" stroke-miterlimit="10" stroke-linecap="round" stroke-linejoin="round"/>
<path id="Vector_4" d="M42.2461 42.3073H46.4948C47.989 42.3073 49.1985 41.0977 49.1985 39.6036V31.7568C49.1985 30.2626 48.1209 28.9717 46.6268 28.9717H43.8621" stroke="#DE192B" stroke-width="1.1" stroke-miterlimit="10" stroke-linecap="round" stroke-linejoin="round"/>
<path id="Vector_5" d="M13.9693 30.11C13.9693 30.11 12.6174 15.4735 30.2016 15.0364C30.6285 15.0263 46.1087 13.8066 46.9015 28.4634C46.9015 28.4634 45.2142 29.2054 42.8968 28.8598C40.7013 28.5346 39.3088 27.4368 38.7396 27.0506C37.8858 26.5221 37.1438 25.7496 37.1438 25.7496C35.9546 24.4689 35.8733 23.6659 35.3346 23.6659C34.8772 23.6659 34.4909 24.8043 33.7591 25.6073C31.401 28.189 28.5448 30.974 21.2266 31.4924C17.4353 31.7668 15.7176 31.0655 13.9591 30.171" stroke="#313131" stroke-width="1.1" stroke-miterlimit="10" stroke-linecap="round" stroke-linejoin="round"/>
<path id="Vector_6" d="M31.564 62.1279C48.444 62.1279 62.1279 48.444 62.1279 31.5639C62.1279 14.6839 48.444 1 31.564 1C14.684 1 1 14.6839 1 31.5639C1 48.444 14.684 62.1279 31.564 62.1279Z" stroke="#313131" stroke-width="1.1" stroke-miterlimit="10" stroke-linecap="round" stroke-linejoin="round"/>
</g>
</svg>
