<svg width="18" height="18" viewBox="0 0 18 18" fill="none" xmlns="http://www.w3.org/2000/svg">
<path id="Vector" d="M8.1683 12.0254C7.9192 12.2786 7.50937 12.2786 7.26027 12.0254L4.68884 9.45402C4.43571 9.20491 4.43571 8.79509 4.68884 8.54598C4.93795 8.29286 5.34777 8.29286 5.59688 8.54598L7.71429 10.6634L12.4031 5.97455C12.6522 5.72143 13.0621 5.72143 13.3112 5.97455C13.5643 6.22366 13.5643 6.63348 13.3112 6.88259L8.1683 12.0254ZM0 2.57143C0 1.15112 1.15112 0 2.57143 0H15.4286C16.8469 0 18 1.15112 18 2.57143V15.4286C18 16.8469 16.8469 18 15.4286 18H2.57143C1.15112 18 0 16.8469 0 15.4286V2.57143ZM1.28571 2.57143V15.4286C1.28571 16.1397 1.86147 16.7143 2.57143 16.7143H15.4286C16.1397 16.7143 16.7143 16.1397 16.7143 15.4286V2.57143C16.7143 1.86147 16.1397 1.28571 15.4286 1.28571H2.57143C1.86147 1.28571 1.28571 1.86147 1.28571 2.57143Z" fill="#313131"/>
</svg>
