<svg width="11" height="23" viewBox="0 0 11 23" fill="none" xmlns="http://www.w3.org/2000/svg">
<g id="&#216;&#170;&#217;&#136;&#217;&#133;&#216;&#167;&#217;&#134;">
<path id="Vector" d="M1.24761 13.7671C0.909462 13.3292 0.740389 12.6619 0.740389 11.7645C0.733177 10.9095 0.707536 10.0417 0.661862 9.16267C0.616188 8.28286 0.552085 7.55807 0.46875 6.98831L1.76524 6.70703C1.83496 7.21446 1.89105 7.90089 1.93271 8.76711C1.97438 9.63334 1.99522 10.434 1.99522 11.1708V11.5672C1.988 11.922 2.00563 12.1897 2.0473 12.3703C2.08897 12.5509 2.17471 12.6795 2.30371 12.7562C2.43272 12.8329 2.63305 12.8713 2.90468 12.8713H2.95677L3.0401 13.6536L2.95677 14.4255H2.90468C2.13865 14.4247 1.58575 14.2058 1.24761 13.7671Z" fill="#313131"/>
<path id="Vector_2" d="M2.88672 12.8699H3.07502C3.6191 12.8699 4.06462 12.5431 4.41399 11.8894C4.76255 11.243 5.09749 10.7579 5.41801 10.4343C5.73853 10.1106 6.09751 9.94922 6.49495 9.94922C6.87156 9.94922 7.20249 10.0691 7.48855 10.3088C7.77461 10.5485 7.99257 10.8578 8.14241 11.2374C8.29225 11.6161 8.36757 12.0141 8.36757 12.4312C8.36757 12.8348 8.29065 13.2079 8.1376 13.5524C7.98375 13.8968 7.76099 14.1557 7.46852 14.3291C7.31547 14.4266 7.12717 14.4753 6.90361 14.4753C6.36674 14.4753 5.65519 14.1972 4.76976 13.6411C4.33706 14.1629 3.76574 14.4234 3.05419 14.4234H2.85547L2.88672 12.8699ZM6.32748 12.8859C6.59271 13.001 6.79463 13.0577 6.93406 13.0577C7.00377 13.0577 7.05265 13.0473 7.08069 13.0266C7.15041 12.9778 7.20409 12.9067 7.24256 12.8124C7.28102 12.7189 7.30025 12.6094 7.30025 12.484C7.30025 12.2059 7.22332 11.947 7.07028 11.7072C6.91643 11.4675 6.7145 11.3476 6.4637 11.3476C6.14959 11.3476 5.80824 11.7024 5.43884 12.4112C5.76577 12.6126 6.06225 12.7708 6.32748 12.8859Z" fill="#313131"/>
<path id="Vector_3" d="M3.31652 0.478516L4.27888 1.43823L3.31652 2.40834C2.996 2.08151 2.67148 1.75867 2.34375 1.43823L3.31652 0.478516Z" fill="#313131"/>
<path id="Vector_4" d="M1.38844 4.30752C1.29068 4.62397 1.2418 4.94521 1.2418 5.27204C1.2418 5.8426 1.4229 6.26612 1.78588 6.54421C2.14807 6.82229 2.67131 6.96134 3.35482 6.96134C3.84281 6.96134 4.2699 6.87823 4.63609 6.71122C5.00228 6.5442 5.28113 6.32365 5.47264 6.04876C5.66415 5.77387 5.7603 5.4838 5.7603 5.17774C5.7603 4.78139 5.53674 3.94713 5.09122 2.67496L6.20983 2.09082C6.64894 3.2663 6.86849 4.29474 6.86849 5.17774C6.86849 5.78266 6.72186 6.33884 6.42938 6.84626C6.13691 7.35369 5.72344 7.75884 5.18978 8.0617C4.65612 8.36376 4.04473 8.51558 3.35402 8.51558C2.70577 8.51558 2.13365 8.39252 1.63925 8.1456C1.14405 7.89868 0.758624 7.54628 0.48378 7.08679C0.208135 6.62811 0.0703125 6.08872 0.0703125 5.47021C0.0703125 5.34476 0.0735177 5.24806 0.0807293 5.17854C0.101563 4.78219 0.183295 4.36826 0.326727 3.93754C0.469357 3.50683 0.628013 3.11047 0.802696 2.74848L1.80672 3.20716C1.62562 3.62429 1.4862 3.99108 1.38844 4.30752Z" fill="#313131"/>
<path id="Vector_5" d="M8.89062 12.7807L9.84315 11.8256L10.8069 12.7807L10.4896 13.0988L9.84315 13.7471L8.89062 12.7807ZM8.89062 10.7799L9.84315 9.82473L10.8069 10.7799L10.4896 11.098L9.84315 11.7462L8.89062 10.7799Z" fill="#313131"/>
<path id="Vector_6" d="M4.79791 20.393C5.32757 20.1253 5.67613 19.8 5.8436 19.4181C5.07676 19.4045 4.45576 19.3262 3.98219 19.1831C3.50783 19.0409 3.17689 18.7676 2.98859 18.3641C2.86278 18.0932 2.80028 17.7943 2.80028 17.4675C2.80028 17.0575 2.88763 16.6484 3.06151 16.2416C3.23539 15.8349 3.47658 15.5009 3.78347 15.2404C4.09037 14.9799 4.42451 14.8496 4.78749 14.8496C5.14968 14.8496 5.48462 14.9855 5.79152 15.2564C6.09841 15.5272 6.35483 15.8924 6.55996 16.3511C6.76589 16.8098 6.90371 17.3108 6.97343 17.8526H7.41253L7.49587 18.6349L7.41253 19.4069H6.94217C6.76749 20.1788 6.34441 20.8285 5.67132 21.3575C4.99823 21.8857 4.12482 22.2509 3.05109 22.4522L2.57031 21.1066C3.52546 20.8988 4.26826 20.6607 4.79791 20.393ZM4.58877 17.7647C4.9165 17.8167 5.34199 17.8462 5.86443 17.8534C5.76668 17.3947 5.60962 17.0104 5.39407 16.7011C5.17772 16.3919 4.93413 16.2368 4.66169 16.2368C4.52227 16.2368 4.39165 16.2872 4.26986 16.3879C4.14806 16.4886 4.05191 16.6156 3.98219 16.7682C3.91248 16.9217 3.87803 17.0671 3.87803 17.2062C3.87803 17.3244 3.90206 17.4187 3.95094 17.4874C4.0487 17.6201 4.26104 17.7128 4.58877 17.7647Z" fill="#313131"/>
<path id="Vector_7" d="M9.87635 14.7764L8.76816 15.3813C8.83787 15.5275 8.94925 15.8176 9.1031 16.2523C9.25615 16.687 9.33627 16.9811 9.34349 17.1337C9.34349 17.3774 9.20086 17.558 8.91479 17.6763C8.62873 17.7946 8.14074 17.8537 7.45083 17.8537H6.94922V19.408H7.6816C8.6087 19.408 9.30983 19.2186 9.7834 18.8398C10.2578 18.461 10.4982 17.9168 10.5054 17.2072C10.5054 16.846 10.4357 16.4233 10.2962 15.9399C10.1552 15.4564 10.0158 15.0688 9.87635 14.7764Z" fill="#313131"/>
</g>
</svg>
