<svg width="19" height="18" viewBox="0 0 19 18" fill="none" xmlns="http://www.w3.org/2000/svg">
<g id="Component 351">
<path id="Vector" d="M17.3995 3.56716H17.3996C17.5838 3.56736 17.7613 3.63711 17.8929 3.76254C18.0247 3.88811 18.0998 4.05943 18.1 4.2392V4.23932V5.86542V5.86554C18.0998 6.04531 18.0247 6.21663 17.8929 6.3422C17.7613 6.46763 17.5838 6.53738 17.3996 6.53758H17.3995H17.1629L16.0712 16.4677C16.0712 16.468 16.0711 16.4683 16.0711 16.4687C16.0427 16.7796 15.8927 17.068 15.6525 17.277C15.4123 17.4861 15.0992 17.6008 14.7756 17.5995C14.7755 17.5995 14.7753 17.5995 14.7752 17.5995M17.3995 3.56716L14.7756 17.4995L14.7752 17.5995M17.3995 3.56716H13.5062L12.9829 0.68906L12.9835 0.688947M17.3995 3.56716L12.9835 0.688947M14.7752 17.5995H4.2248M14.7752 17.5995H4.2248M4.2248 17.5995L4.22438 17.5995L4.2248 17.5995ZM12.9835 0.688947L12.9802 0.678144M12.9835 0.688947L12.9802 0.678144M12.9802 0.678144C12.9557 0.596633 12.9043 0.525882 12.8348 0.47598C12.7654 0.426128 12.6815 0.399532 12.5957 0.399512H12.5957M12.9802 0.678144L12.5957 0.399512M12.5957 0.399512H6.40434H6.40431M12.5957 0.399512H6.40431M6.40431 0.399512C6.31853 0.399532 6.23459 0.426128 6.16518 0.47598C6.09571 0.525882 6.0443 0.596633 6.01977 0.678143L6.01917 0.67796M6.40431 0.399512L6.01917 0.67796M6.01917 0.67796L6.01715 0.68906M6.01917 0.67796L6.01715 0.68906M6.01715 0.68906L5.49378 3.56716L1.60048 3.56716L1.60037 3.56716M6.01715 0.68906L1.60037 3.56716M1.60037 3.56716C1.4162 3.56736 1.23872 3.63711 1.1071 3.76253C0.975305 3.88811 0.900217 4.05943 0.9 4.2392V4.23932M1.60037 3.56716L0.9 4.23932M0.9 4.23932L0.9 5.86542L0.9 5.86554M0.9 4.23932L0.9 5.86554M0.9 5.86554C0.900217 6.04531 0.975305 6.21663 1.1071 6.3422C1.23872 6.46763 1.4162 6.53738 1.60037 6.53758H1.60048M0.9 5.86554L1.60048 6.53758M1.60048 6.53758H1.83711H1.60048ZM15.2741 16.3959L15.2741 16.3959L15.2739 16.3979C15.2634 16.5138 15.2075 16.6229 15.1156 16.7029C15.0235 16.783 14.9024 16.8279 14.776 16.8273H14.7756H4.22438L4.22396 16.8273C4.09765 16.8279 3.9765 16.783 3.88448 16.703C3.79259 16.623 3.73661 16.5139 3.7261 16.398L3.72612 16.398L3.72591 16.3961L2.64124 6.53758H16.3588L15.2741 16.3959ZM6.31991 3.56716L6.71553 1.17168H12.2845L12.6801 3.56716H6.31991ZM16.799 5.76542H1.70048V4.33932H17.2995L17.2998 5.76542H16.799Z" fill="#C2C2C2" stroke="#C2C2C2" stroke-width="0.2"/>
<path id="Vector 136" d="M6.56055 8.60742L7.19691 14.7101" stroke="#C2C2C2" stroke-width="1.1" stroke-linecap="round"/>
<path id="Vector 138" d="M12.5469 8.60742L11.9105 14.7101" stroke="#C2C2C2" stroke-width="1.1" stroke-linecap="round"/>
</g>
</svg>
