<svg width="26" height="26" viewBox="0 0 26 26" fill="none" xmlns="http://www.w3.org/2000/svg">
<g id="Group 917">
<path id="Vector" d="M23.1625 11.1924C23.1825 11.2724 23.2025 11.3624 23.2225 11.4424C23.3825 12.1824 23.4725 12.9524 23.4725 13.7324C23.4725 19.6424 18.6825 24.4424 12.7625 24.4424C12.3725 24.4424 11.9925 24.4224 11.6225 24.3824C11.2625 24.3424 10.9125 24.2924 10.5625 24.2124" stroke="#BE1E2D" stroke-width="1.38" stroke-miterlimit="10"/>
<path id="Vector_2" d="M10.962 24.2324C6.95198 26.5724 1.62195 22.1824 1.62195 22.1824C0.591953 21.4424 1.15198 20.4524 1.15198 20.4524C1.51198 19.4924 1.76197 17.7824 1.76197 17.7824C2.02197 14.9224 1.72199 13.0624 1.72199 13.0624C1.37199 10.4524 1.94196 8.3424 1.94196 8.3424C2.38196 6.4424 3.49196 5.02239 4.75196 3.99239C7.04196 2.10239 9.81195 1.5624 9.81195 1.5624C12.232 1.1324 12.912 1.33239 14.102 1.46239C17.982 1.89239 19.4519 3.75241 19.4319 4.79241C19.4319 4.95241 19.522 4.92241 19.592 4.91241C20.802 4.70241 24.632 5.50239 24.632 11.1724C24.632 11.1724 24.952 11.6024 23.282 11.2124C22.282 10.9824 21.892 11.2924 20.852 11.4124C19.622 11.5624 17.042 11.5524 14.452 8.17239C14.452 8.17239 13.642 10.5624 10.272 13.3424C10.272 13.3424 8.54196 14.5924 6.63196 15.2924C6.63196 15.2924 4.95196 15.7224 4.57196 16.8324C4.57196 16.8324 4.07199 18.1124 5.28199 19.8224C5.86199 20.6324 7.54198 23.4724 10.962 24.2324Z" stroke="#BE1E2D" stroke-width="1.38" stroke-miterlimit="10"/>
<path id="Vector_3" d="M20.1631 15.9927C20.1631 15.3127 19.6131 14.7627 18.9331 14.7627C18.2531 14.7627 17.7031 15.3127 17.7031 15.9927" stroke="#BE1E2D" stroke-width="1.38" stroke-miterlimit="10" stroke-linecap="round"/>
<path id="Vector_4" d="M11.9141 20.2627C12.3741 21.2727 13.9741 21.3427 14.5441 20.2627" stroke="#BE1E2D" stroke-width="1.38" stroke-miterlimit="10" stroke-linecap="round"/>
<path id="Vector_5" d="M5.30078 12.7622C7.39078 12.2322 9.7108 10.1921 10.8808 8.45215" stroke="#BE1E2D" stroke-width="1.38" stroke-miterlimit="10" stroke-linecap="round"/>
</g>
</svg>
