<svg width="26" height="26" viewBox="0 0 26 26" fill="none" xmlns="http://www.w3.org/2000/svg">
<g id="Group 1288">
<path id="Vector" d="M23.1625 11.1924C23.1825 11.2724 23.2025 11.3624 23.2225 11.4424C23.3825 12.1824 23.4725 12.9524 23.4725 13.7324C23.4725 19.6424 18.6825 24.4424 12.7625 24.4424C12.3725 24.4424 11.9925 24.4224 11.6225 24.3824C11.2625 24.3424 10.9125 24.2924 10.5625 24.2124" stroke="#BE1E2D" stroke-width="1.38" stroke-miterlimit="10"/>
<path id="Vector_2" d="M10.962 24.2324C6.95198 26.5724 1.62195 22.1824 1.62195 22.1824C0.591953 21.4424 1.15198 20.4524 1.15198 20.4524C1.51198 19.4924 1.76197 17.7824 1.76197 17.7824C2.02197 14.9224 1.72199 13.0624 1.72199 13.0624C1.37199 10.4524 1.94196 8.3424 1.94196 8.3424C2.38196 6.4424 3.49196 5.02239 4.75196 3.99239C7.04196 2.10239 9.81195 1.5624 9.81195 1.5624C12.232 1.1324 12.9119 1.33239 14.1019 1.46239C17.9819 1.89239 19.4519 3.75241 19.4319 4.79241C19.4319 4.95241 19.522 4.92241 19.592 4.91241C20.802 4.70241 24.632 5.50239 24.632 11.1724C24.632 11.1724 24.952 11.6024 23.282 11.2124C22.282 10.9824 21.8919 11.2924 20.8519 11.4124C19.6219 11.5624 17.042 11.5524 14.452 8.17239C14.452 8.17239 13.642 10.5624 10.272 13.3424C10.272 13.3424 8.54196 14.5924 6.63196 15.2924C6.63196 15.2924 4.95196 15.7224 4.57196 16.8324C4.57196 16.8324 4.07199 18.1124 5.28199 19.8224C5.86199 20.6324 7.54198 23.4724 10.962 24.2324Z" stroke="#BE1E2D" stroke-width="1.38" stroke-miterlimit="10"/>
<path id="Vector_3" d="M20.1631 15.9927C20.1631 15.3127 19.6131 14.7627 18.9331 14.7627C18.2531 14.7627 17.7031 15.3127 17.7031 15.9927" stroke="#BE1E2D" stroke-width="1.38" stroke-miterlimit="10" stroke-linecap="round"/>
<path id="Vector_4" d="M12.0117 20.4424C12.5317 21.2224 13.8217 21.2724 14.4217 20.4524" stroke="#BE1E2D" stroke-width="1.38" stroke-miterlimit="10" stroke-linecap="round"/>
<path id="Vector_5" d="M24.6398 11.1724C24.6398 5.50239 20.8097 4.69241 19.5997 4.91241C19.5297 4.92241 19.4298 4.95241 19.4398 4.79241C19.4598 3.75241 17.9897 1.89239 14.1097 1.46239C12.9297 1.33239 12.2398 1.1324 9.81977 1.5624C9.81977 1.5624 7.04977 2.11239 4.75977 3.99239C3.49977 5.03239 2.37977 6.4424 1.94977 8.3424C1.94977 8.3424 1.37974 10.4624 1.72974 13.0624C1.72974 13.0624 2.02978 14.9224 1.76978 17.7824C1.76978 17.7824 1.51979 19.4924 1.15979 20.4524C1.15979 20.4524 0.599765 21.4424 1.62977 22.1824C1.62977 22.1824 6.95979 26.5724 10.9698 24.2324C7.54979 23.4724 5.86974 20.6224 5.28974 19.8124C4.06974 18.1024 4.57978 16.8224 4.57978 16.8224C4.95978 15.7224 6.63977 15.2824 6.63977 15.2824C8.54977 14.5824 10.2798 13.3324 10.2798 13.3324C13.6598 10.5624 14.4598 8.16241 14.4598 8.16241C17.0398 11.5524 19.6297 11.5524 20.8597 11.4024C21.8997 11.2824 22.2897 10.9724 23.2897 11.2024C24.9497 11.6024 24.6398 11.1724 24.6398 11.1724ZM11.4498 8.8424C10.2098 10.6824 7.74978 12.8424 5.45978 13.4324C5.39978 13.4424 5.33974 13.4524 5.28974 13.4524C4.97974 13.4524 4.69976 13.2424 4.61976 12.9324C4.52976 12.5624 4.74976 12.1924 5.11976 12.0924C7.05976 11.6024 9.23975 9.65241 10.2997 8.07241C10.5097 7.75241 10.9398 7.67241 11.2598 7.88241C11.5798 8.09241 11.6698 8.5224 11.4498 8.8424Z" fill="#BE1E2D"/>
</g>
</svg>
